<?xml version="1.0" encoding="UTF-8" standalone="no"?>
<!-- Created with Inkscape (http://www.inkscape.org/) -->

<svg
   width="129.9292"
   height="179.41992"
   viewBox="0 0 129.9292 179.41992"
   version="1.1"
   id="svg1"
   sodipodi:docname="bg_doc.svg"
   inkscape:version="1.3.2 (091e20e, 2023-11-25, custom)"
   xmlns:inkscape="http://www.inkscape.org/namespaces/inkscape"
   xmlns:sodipodi="http://sodipodi.sourceforge.net/DTD/sodipodi-0.dtd"
   xmlns="http://www.w3.org/2000/svg"
   xmlns:svg="http://www.w3.org/2000/svg">
  <sodipodi:namedview
     id="namedview1"
     pagecolor="#ffffff"
     bordercolor="#000000"
     borderopacity="0.25"
     inkscape:showpageshadow="2"
     inkscape:pageopacity="0.0"
     inkscape:pagecheckerboard="0"
     inkscape:deskcolor="#d1d1d1"
     inkscape:zoom="3.56"
     inkscape:cx="176.68539"
     inkscape:cy="134.12921"
     inkscape:window-width="2560"
     inkscape:window-height="1334"
     inkscape:window-x="-11"
     inkscape:window-y="-11"
     inkscape:window-maximized="1"
     inkscape:current-layer="layer1" />
  <defs
     id="defs1" />
  <g
     id="layer1"
     transform="translate(-1221.2731,-242.07865)">
    <path
       style="color:#000000;fill:#ffffff;stroke-linejoin:round;stroke-miterlimit:5;-inkscape-stroke:none"
       d="m 1230.25,242.07812 c -4.9038,0 -8.9766,4.07278 -8.9766,8.97657 v 161.46679 c 0,4.9038 4.0728,8.97657 8.9766,8.97657 h 111.9766 c 4.9037,0 8.9765,-4.07277 8.9765,-8.97657 V 293.35742 a 4.0004,4.0004 0 0 0 -1.1718,-2.82812 L 1302.752,243.25 a 4.0004,4.0004 0 0 0 -2.8282,-1.17188 z m 0,8 h 68.0156 l 44.9375,44.9375 v 117.50586 c 0,0.6104 -0.3661,0.97657 -0.9765,0.97657 H 1230.25 c -0.6104,0 -0.9766,-0.36617 -0.9766,-0.97657 V 251.05469 c 0,-0.61037 0.3662,-0.97657 0.9766,-0.97657 z"
       id="rect1" />
    <g
       id="path1"
       style="fill:#ffffff">
      <path
         style="color:#000000;fill:#ffffff;stroke-linejoin:round;stroke-miterlimit:5;-inkscape-stroke:none"
         d="m 1347.2023,293.35795 -47.2793,-47.2793 v 42.3028 c 0,2.7571 2.2195,4.9765 4.9766,4.9765 z"
         id="path11" />
      <path
         style="color:#000000;fill:#ffffff;stroke-linejoin:round;stroke-miterlimit:5;-inkscape-stroke:none"
         d="m 1298.3926,242.38281 a 4.0004,4.0004 0 0 0 -2.4688,3.69531 v 42.30274 c 0,4.90379 4.0729,8.97656 8.9766,8.97656 h 42.3027 a 4.0004,4.0004 0 0 0 2.8282,-6.82812 L 1302.752,243.25 a 4.0004,4.0004 0 0 0 -4.3594,-0.86719 z m 5.5312,13.35352 33.6211,33.62109 h -32.6445 c -0.6105,0 -0.9766,-0.36616 -0.9766,-0.97656 z"
         id="path12" />
    </g>
    <g
       id="path2"
       transform="matrix(0.99997777,0,0,1.0146155,-3.9433823,2.6162496)"
       style="fill:#ffffff">
      <path
         style="color:#000000;fill:#ffffff;stroke-linecap:round;stroke-linejoin:round;stroke-miterlimit:5;-inkscape-stroke:none"
         d="m 1252.6243,312.361 h 82.118"
         id="path3" />
      <path
         style="color:#000000;fill:#ffffff;stroke-linecap:round;stroke-linejoin:round;stroke-miterlimit:5;-inkscape-stroke:none"
         d="m 1252.625,308.41797 a 3.9421,3.9421 0 0 0 -3.9434,3.94336 3.9421,3.9421 0 0 0 3.9434,3.9414 h 82.1172 a 3.9421,3.9421 0 0 0 3.9414,-3.9414 3.9421,3.9421 0 0 0 -3.9414,-3.94336 z"
         id="path4" />
    </g>
    <g
       id="g6"
       transform="matrix(0.99997777,0,0,1.0146155,-3.9433823,28.800862)"
       style="fill:#ffffff">
      <path
         style="color:#000000;fill:#ffffff;stroke-linecap:round;stroke-linejoin:round;stroke-miterlimit:5;-inkscape-stroke:none"
         d="m 1252.6243,312.361 h 82.118"
         id="path5" />
      <path
         style="color:#000000;fill:#ffffff;stroke-linecap:round;stroke-linejoin:round;stroke-miterlimit:5;-inkscape-stroke:none"
         d="m 1252.625,308.41797 a 3.9421,3.9421 0 0 0 -3.9434,3.94336 3.9421,3.9421 0 0 0 3.9434,3.9414 h 82.1172 a 3.9421,3.9421 0 0 0 3.9414,-3.9414 3.9421,3.9421 0 0 0 -3.9414,-3.94336 z"
         id="path6" />
    </g>
    <g
       id="g10"
       transform="matrix(0.99997777,0,0,1.0146155,-3.9433823,54.985473)"
       style="fill:#ffffff">
      <path
         style="color:#000000;fill:#ffffff;stroke-linecap:round;stroke-linejoin:round;stroke-miterlimit:5;-inkscape-stroke:none"
         d="m 1252.6243,312.361 h 82.118"
         id="path9" />
      <path
         style="color:#000000;fill:#ffffff;stroke-linecap:round;stroke-linejoin:round;stroke-miterlimit:5;-inkscape-stroke:none"
         d="m 1252.625,308.41797 a 3.9421,3.9421 0 0 0 -3.9434,3.94336 3.9421,3.9421 0 0 0 3.9434,3.9414 h 82.1172 a 3.9421,3.9421 0 0 0 3.9414,-3.9414 3.9421,3.9421 0 0 0 -3.9414,-3.94336 z"
         id="path10" />
    </g>
    <g
       id="g8"
       transform="matrix(0.99997777,0,0,1.0146155,-3.9433823,81.170085)"
       style="fill:#ffffff">
      <path
         style="color:#000000;fill:#ffffff;stroke-linecap:round;stroke-linejoin:round;stroke-miterlimit:5;-inkscape-stroke:none"
         d="m 1252.6243,312.361 h 82.118"
         id="path7" />
      <path
         style="color:#000000;fill:#ffffff;stroke-linecap:round;stroke-linejoin:round;stroke-miterlimit:5;-inkscape-stroke:none"
         d="m 1252.625,308.41797 a 3.9421,3.9421 0 0 0 -3.9434,3.94336 3.9421,3.9421 0 0 0 3.9434,3.9414 h 82.1172 a 3.9421,3.9421 0 0 0 3.9414,-3.9414 3.9421,3.9421 0 0 0 -3.9414,-3.94336 z"
         id="path8" />
    </g>
    <g
       id="g14"
       transform="matrix(0.99997777,0,0,1.0146155,-3.9433823,-23.568362)"
       style="fill:#ffffff">
      <path
         style="color:#000000;fill:#ffffff;stroke-linecap:round;stroke-linejoin:round;stroke-miterlimit:5;-inkscape-stroke:none"
         d="m 1252.6243,312.361 h 82.118"
         id="path13" />
      <path
         style="color:#000000;fill:#ffffff;stroke-linecap:round;stroke-linejoin:round;stroke-miterlimit:5;-inkscape-stroke:none"
         d="m 1252.625,308.41797 c -2.1782,-7.2e-4 -3.9441,1.7652 -3.9434,3.94336 4e-4,2.1774 1.766,3.94212 3.9434,3.9414 h 34.9998 c 2.1766,-3.9e-4 3.941,-1.76478 3.9414,-3.9414 7e-4,-2.17738 -1.764,-3.94297 -3.9414,-3.94336 z"
         id="path14"
         sodipodi:nodetypes="ccccccc" />
    </g>
  </g>
</svg>
