<?xml version="1.0" encoding="UTF-8" standalone="no"?>
<!-- Created with Inkscape (http://www.inkscape.org/) -->

<svg
   width="200.00073"
   height="200"
   viewBox="0 0 200.00073 200"
   version="1.1"
   id="svg1"
   sodipodi:docname="bg_logo_poll.svg"
   inkscape:version="1.3.2 (091e20e, 2023-11-25, custom)"
   xmlns:inkscape="http://www.inkscape.org/namespaces/inkscape"
   xmlns:sodipodi="http://sodipodi.sourceforge.net/DTD/sodipodi-0.dtd"
   xmlns="http://www.w3.org/2000/svg"
   xmlns:svg="http://www.w3.org/2000/svg">
  <sodipodi:namedview
     id="namedview1"
     pagecolor="#ffffff"
     bordercolor="#000000"
     borderopacity="0.25"
     inkscape:showpageshadow="2"
     inkscape:pageopacity="0.0"
     inkscape:pagecheckerboard="0"
     inkscape:deskcolor="#d1d1d1"
     inkscape:zoom="1.8084256"
     inkscape:cx="186.34994"
     inkscape:cy="114.74069"
     inkscape:window-width="2560"
     inkscape:window-height="1334"
     inkscape:window-x="-11"
     inkscape:window-y="-11"
     inkscape:window-maximized="1"
     inkscape:current-layer="layer1" />
  <defs
     id="defs1" />
  <g
     id="layer1"
     transform="translate(-1208.6833,-233.3599)">
    <path
       id="path401-4"
       style="display:inline;fill:#ecfbfe;fill-opacity:1;stroke:none;stroke-width:2.67601;stroke-linecap:round;stroke-linejoin:round;paint-order:markers stroke fill"
       d="m 1308.6837,233.3599 c -55.1969,0 -100.0004,44.80279 -100.0004,99.9996 0,55.19708 44.8035,100.0004 100.0004,100.0004 55.197,0 100.0004,-44.80332 100.0004,-100.0004 0,-55.19681 -44.8034,-99.9996 -100.0004,-99.9996 z m 0,5.33295 c 52.3146,0 94.6666,42.35225 94.6666,94.66665 0,52.31468 -42.352,94.66745 -94.6666,94.66745 -52.3145,0 -94.6673,-42.35277 -94.6673,-94.66745 0,-52.3144 42.3528,-94.66665 94.6673,-94.66665 z m -6.6043,17.08018 -2.333,17.70445 v 23.11313 h -7.4834 c -0.5898,-10.48149 -6.6524,-17.22139 -17.1133,-17.22139 h 0.011 a 9.0047975,9.0047975 0 0 0 -9.0048,9.00483 9.0047975,9.0047975 0 0 0 9.0048,9.00482 9.0047975,9.0047975 0 0 0 9.0048,-9.00482 9.0047975,9.0047975 0 0 0 -1.367,-4.75561 c 3.6174,2.71334 6.2197,7.24802 6.5195,12.9659 h -5.2159 v 5.33374 h 4.8348 c -0.7717,4.17268 -2.6791,8.7687 -6.1514,13.63511 -14.2628,19.98765 -27.483,28.26915 -27.483,45.32238 0,17.05312 12.1816,24.80127 23.9909,24.80127 11.7107,0 22.8235,-10.64763 20.0176,-21.74552 a 5.7391071,5.7391071 0 0 0 -0.017,-0.0667 c -0.019,-0.0707 -0.03,-0.14293 -0.05,-0.2136 h -0.027 a 5.7391071,5.7391071 0 0 0 -5.4269,-3.90815 5.7391071,5.7391071 0 0 0 -5.7388,5.73963 5.7391071,5.7391071 0 0 0 5.7388,5.73881 5.7391071,5.7391071 0 0 0 1.9838,-0.36933 c -2.0174,3.66973 -6.009,4.45587 -9.0773,4.45587 -7.9395,0 -27.3874,-14.28404 -7.4715,-42.75024 7.8542,-11.22644 11.9844,-21.86379 12.8936,-30.64008 h 7.6307 v 88.2905 a 18.639804,18.639804 0 0 0 -9.5862,16.27323 18.639804,18.639804 0 0 0 0.1433,2.00988 80.080558,80.080558 0 0 0 18.9185,2.45081 80.080558,80.080558 0 0 0 18.0606,-2.26401 18.639804,18.639804 0 0 0 0.157,-2.19668 18.639804,18.639804 0 0 0 -9.8179,-16.38764 v -88.1761 h 7.6303 c 0.9091,8.77628 5.0393,19.41364 12.8936,30.64008 19.9159,28.4662 0.468,42.75024 -7.4717,42.75024 -3.0681,0 -7.0597,-0.78614 -9.0771,-4.45587 a 5.7391071,5.7391071 0 0 0 1.9836,0.36932 5.7391071,5.7391071 0 0 0 5.7389,-5.7388 5.7391071,5.7391071 0 0 0 -5.7389,-5.73963 5.7391071,5.7391071 0 0 0 -5.4267,3.90815 h -0.027 c -0.02,0.0707 -0.032,0.1424 -0.051,0.2136 a 5.7391071,5.7391071 0 0 0 -0.015,0.0667 c -2.8059,11.09789 8.3069,21.74552 20.0174,21.74552 11.8095,0 23.9911,-7.74815 23.9911,-24.80127 0,-17.05323 -13.2203,-25.33473 -27.483,-45.32238 -3.4724,-4.86641 -5.3798,-9.46243 -6.1516,-13.63511 h 4.8348 v -5.33374 h -5.2158 c 0.2997,-5.71788 2.902,-10.25256 6.5195,-12.9659 a 9.0047975,9.0047975 0 0 0 -1.367,4.75561 9.0047975,9.0047975 0 0 0 9.0048,9.00482 9.0047975,9.0047975 0 0 0 9.0048,-9.00482 9.0047975,9.0047975 0 0 0 -9.0048,-9.00483 h 0.011 c -10.4609,0 -16.5237,6.7399 -17.1133,17.22139 h -7.4828 v -17.73324 h -0.011 c 0,0 -1.2348,-0.57479 -1.2348,-2.27654 0,-1.70174 1.9183,-1.33494 1.9183,-3.65388 0,-2.31907 -1.5441,-4.09361 -2.1422,-6.15921 -0.5979,-2.0656 -0.7503,-3.09641 -0.7503,-3.09641 -0.026,2.26735 0.02,4.53468 0,6.80201 0.1953,0.45028 0.5457,1.20028 0.5457,1.45108 0,0.34013 -0.258,0.61693 -0.5884,0.65387 v -0.001 c -0.026,0 -0.051,0.0133 -0.078,0.0133 h -0.028 c -0.014,-10e-4 -0.03,0 -0.044,0 v 6e-4 c -0.3302,-0.0373 -0.5884,-0.31441 -0.5884,-0.65454 0,-0.2508 0.3504,-1.00081 0.5458,-1.45107 -0.026,-2.26707 0.02,-4.53428 0,-6.80135 l -0.011,-0.0133 c 0,0 -0.1523,1.0308 -0.7504,3.0964 -0.5979,2.06561 -2.142,3.84015 -2.142,6.15922 0,2.31894 1.9181,1.95214 1.9181,3.65388 0,1.70173 -1.2347,2.27654 -1.2347,2.27654 v 0 17.73325 h -1.9383 v -6.59733 l -1.0563,-20.17792 c 1.1085,-0.58053 1.5222,-1.9252 1.5222,-3.10546 0,-1.56374 -0.5837,-4.69496 -3.5629,-7.71496 1.3205,3.24427 -2.0548,5.27761 -2.1002,7.71496 -0.018,0.96866 0.4232,2.44999 1.5903,3.08747 l -1.0584,20.19591 v 6.59736 h -1.9381 v -23.11313 z m 2.3331,46.15133 h 1.9381 v 86.08769 a 18.639804,18.639804 0 0 0 -1.9381,0.3852 z m 6.6041,0 h 1.9383 v 86.42662 a 18.639804,18.639804 0 0 0 -1.9383,-0.35693 z"
       clip-path="none" />
  </g>
</svg>
