<?xml version="1.0" encoding="UTF-8" standalone="no"?>
<!-- Created with Inkscape (http://www.inkscape.org/) -->

<svg
   width="24"
   height="24"
   viewBox="0 0 24 24"
   version="1.1"
   id="svg1"
   xml:space="preserve"
   sodipodi:docname="calendar_icon.svg"
   inkscape:version="1.3.2 (091e20e, 2023-11-25, custom)"
   xmlns:inkscape="http://www.inkscape.org/namespaces/inkscape"
   xmlns:sodipodi="http://sodipodi.sourceforge.net/DTD/sodipodi-0.dtd"
   xmlns:xlink="http://www.w3.org/1999/xlink"
   xmlns="http://www.w3.org/2000/svg"
   xmlns:svg="http://www.w3.org/2000/svg"><sodipodi:namedview
     id="namedview1"
     pagecolor="#ffffff"
     bordercolor="#000000"
     borderopacity="0.25"
     inkscape:showpageshadow="2"
     inkscape:pageopacity="0.0"
     inkscape:pagecheckerboard="0"
     inkscape:deskcolor="#d1d1d1"
     inkscape:current-layer="svg1" /><defs
     id="defs1"><linearGradient
       id="swatch4"
       gradientTransform="translate(10802.77,7932.0594)"><stop
         style="stop-color:#5092bc;stop-opacity:1;"
         offset="0"
         id="stop4" /></linearGradient><linearGradient
       id="swatch38"
       gradientTransform="matrix(2.7477313,0,0,0.57537588,2744.1305,3353.8114)"><stop
         style="stop-color:#0067ca;stop-opacity:1;"
         offset="0"
         id="stop38" /></linearGradient><linearGradient
       id="swatch26"
       gradientTransform="matrix(2.1373655,0,0,1.6391868,2219.8253,48.732877)"><stop
         style="stop-color:#cfe7fc;stop-opacity:1;"
         offset="0"
         id="stop26" /></linearGradient><linearGradient
       id="swatch25"><stop
         style="stop-color:#f5f7f8;stop-opacity:1;"
         offset="0"
         id="stop25" /></linearGradient><linearGradient
       id="swatch3"
       gradientTransform="matrix(0.96846214,0,0,1.0426288,1105.0222,1942.5453)"><stop
         style="stop-color:#1942a9;stop-opacity:1;"
         offset="0"
         id="stop3" /></linearGradient><linearGradient
       xlink:href="#swatch26"
       id="linearGradient258"
       x1="187.41582"
       y1="291.40842"
       x2="197.80388"
       y2="291.40842"
       gradientUnits="userSpaceOnUse"
       gradientTransform="matrix(0.53153981,0,0,0.53974639,-84.681155,-151.08738)" /><linearGradient
       xlink:href="#swatch26"
       id="linearGradient259"
       gradientTransform="matrix(0.30541994,0,0,0.79831908,-87.607977,-128.27453)"
       x1="322.19489"
       y1="160.87029"
       x2="328.6915"
       y2="160.87029"
       gradientUnits="userSpaceOnUse" /><linearGradient
       xlink:href="#swatch26"
       id="linearGradient260"
       gradientTransform="matrix(0.30541994,0,0,0.79831908,-86.393748,-128.27453)"
       x1="337.75278"
       y1="160.87029"
       x2="344.24942"
       y2="160.87029"
       gradientUnits="userSpaceOnUse" /><linearGradient
       xlink:href="#swatch26"
       id="linearGradient261"
       gradientTransform="matrix(0.30541994,0,0,0.79831908,-88.822213,-128.27453)"
       x1="306.63696"
       y1="160.87029"
       x2="313.13358"
       y2="160.87029"
       gradientUnits="userSpaceOnUse" /></defs><rect
     style="fill:#0067ca;fill-opacity:1;stroke:none;stroke-width:1.99955;stroke-linecap:round;stroke-linejoin:round;stroke-dasharray:none"
     id="rect66"
     width="3.5374627"
     height="3.5920784"
     x="3.9980581"
     y="7.2066731" /><rect
     style="fill:url(#linearGradient258);fill-opacity:1;stroke:#0067ca;stroke-width:1.99955;stroke-linecap:round;stroke-linejoin:round;stroke-dasharray:none;stroke-opacity:1"
     id="rect67"
     width="3.5374627"
     height="3.5920784"
     x="15.929916"
     y="7.2066731" /><rect
     style="fill:#0067ca;fill-opacity:1;stroke:none;stroke-width:1.99955;stroke-linecap:round;stroke-linejoin:round;stroke-dasharray:none"
     id="rect68"
     width="3.5374627"
     height="3.5920784"
     x="3.9980581"
     y="13.159762" /><rect
     style="fill:#0067ca;fill-opacity:1;stroke:none;stroke-width:1.99955;stroke-linecap:round;stroke-linejoin:round;stroke-dasharray:none"
     id="rect69"
     width="3.5374627"
     height="3.5920784"
     x="9.9639874"
     y="13.159762" /><rect
     style="fill:#0067ca;fill-opacity:1;stroke:none;stroke-width:1.99955;stroke-linecap:round;stroke-linejoin:round;stroke-dasharray:none"
     id="rect5"
     width="3.5374627"
     height="3.5920784"
     x="9.9639874"
     y="7.2066731" /><rect
     style="fill:#0067ca;fill-opacity:1;stroke:none;stroke-width:1.99955;stroke-linecap:round;stroke-linejoin:round;stroke-dasharray:none"
     id="rect6"
     width="3.5374627"
     height="3.5920784"
     x="15.929916"
     y="13.159762" /><path
     id="path21"
     style="color:#000000;fill:#0067ca;stroke-width:0.999999;stroke-linecap:round;stroke-linejoin:round;-inkscape-stroke:none;fill-opacity:1"
     d="M 5.828125 0 C 5.2762385 -0.00012438261 4.8280007 0.44725945 4.828125 1 L 4.828125 2.2304688 L 1.171875 2.2304688 C 0.525766 2.230011 0.00062074853 2.7532819 0 3.4003906 L 0 19.792969 C 0.0077136623 19.871889 0.023447843 19.9516 0.046875 20.027344 C 0.019437357 20.126757 3.9967434e-05 20.229732 0 20.337891 L 0 22.830078 C 0.00028676634 23.477326 0.52562857 24.000792 1.171875 24 L 22.828125 24 C 23.47437 24.000792 23.999713 23.477326 24 22.830078 L 24 20.337891 C 23.999958 20.244021 23.985724 20.153886 23.964844 20.066406 C 23.987124 19.977536 23.99893 19.884595 24 19.792969 L 24 3.4003906 C 23.999379 2.753282 23.474234 2.2300111 22.828125 2.2304688 L 18.748047 2.2304688 L 18.748047 1 C 18.748171 0.44725937 18.301886 -0.00012449329 17.75 0 C 17.198876 0.0009537067 16.751828 0.44802181 16.751953 1 L 16.751953 2.2304688 L 12.904297 2.2304688 L 12.904297 1 C 12.904421 0.44725937 12.458136 -0.00012449329 11.90625 0 C 11.354364 -0.00012449329 10.906125 0.44725937 10.90625 1 L 10.90625 2.2304688 L 6.8261719 2.2304688 L 6.8261719 1 C 6.8262962 0.44725941 6.3800116 -0.00012443795 5.828125 0 z M 2.3398438 4.5742188 L 4.8378906 4.5742188 C 4.8877984 5.0847508 5.3159501 5.4741082 5.828125 5.4765625 C 6.3402999 5.4741083 6.7664985 5.0847509 6.8164062 4.5742188 L 10.916016 4.5742188 C 10.965926 5.0847509 11.394075 5.4741083 11.90625 5.4765625 C 12.418425 5.4741125 12.844623 5.0847513 12.894531 4.5742188 L 16.761719 4.5742188 C 16.811549 5.0840114 17.238574 5.4731109 17.75 5.4765625 C 18.262175 5.4741125 18.688373 5.0847513 18.738281 4.5742188 L 21.660156 4.5742188 L 21.660156 18.623047 L 2.3398438 18.623047 L 2.3398438 4.5742188 z " /></svg>
