<?xml version="1.0" encoding="UTF-8" standalone="no"?>
<!-- Created with Inkscape (http://www.inkscape.org/) -->

<svg
   width="24"
   height="24"
   viewBox="0 0 24 24.000001"
   version="1.1"
   id="svg1"
   xml:space="preserve"
   sodipodi:docname="ck_icon.svg"
   inkscape:version="1.3.2 (091e20e, 2023-11-25, custom)"
   xmlns:inkscape="http://www.inkscape.org/namespaces/inkscape"
   xmlns:sodipodi="http://sodipodi.sourceforge.net/DTD/sodipodi-0.dtd"
   xmlns:xlink="http://www.w3.org/1999/xlink"
   xmlns="http://www.w3.org/2000/svg"
   xmlns:svg="http://www.w3.org/2000/svg"><sodipodi:namedview
     id="namedview1"
     pagecolor="#ffffff"
     bordercolor="#000000"
     borderopacity="0.25"
     inkscape:showpageshadow="2"
     inkscape:pageopacity="0.0"
     inkscape:pagecheckerboard="0"
     inkscape:deskcolor="#d1d1d1"
     inkscape:current-layer="svg1" /><defs
     id="defs1"><linearGradient
       id="swatch4"
       gradientTransform="translate(10802.77,7932.0594)"><stop
         style="stop-color:#5092bc;stop-opacity:1;"
         offset="0"
         id="stop4" /></linearGradient><linearGradient
       id="swatch38"
       gradientTransform="translate(1070.2578,5619.3091)"><stop
         style="stop-color:#0067ca;stop-opacity:1;"
         offset="0"
         id="stop38" /></linearGradient><linearGradient
       id="swatch26"
       gradientTransform="matrix(2.1373655,0,0,1.6391868,2219.8253,48.732877)"><stop
         style="stop-color:#cfe7fc;stop-opacity:1;"
         offset="0"
         id="stop26" /></linearGradient><linearGradient
       id="swatch25"><stop
         style="stop-color:#f5f7f8;stop-opacity:1;"
         offset="0"
         id="stop25" /></linearGradient><linearGradient
       id="swatch3"
       gradientTransform="matrix(0.96846214,0,0,1.0426288,1105.0222,1942.5453)"><stop
         style="stop-color:#1942a9;stop-opacity:1;"
         offset="0"
         id="stop3" /></linearGradient><linearGradient
       xlink:href="#swatch26"
       id="linearGradient256"
       gradientTransform="matrix(1.4510726,0,0,0.43021093,-135.91051,-122.72435)"
       x1="94.353554"
       y1="263.92471"
       x2="110.89768"
       y2="263.92471"
       gradientUnits="userSpaceOnUse" /></defs><path
     style="color:#000000;fill:#cfe7fc;fill-opacity:1;stroke-linecap:round;stroke-linejoin:round;-inkscape-stroke:none"
     d="M 7.2206887,7.5941751 H 23 V 12.718325 H 7.2206887 Z"
     id="path5"
     sodipodi:nodetypes="ccccc" /><path
     id="path62"
     style="color:#000000;fill:#0067ca;stroke-linecap:round;stroke-linejoin:round;-inkscape-stroke:none;fill-opacity:1"
     d="M 0.99999995,0 C 0.44771522,1e-7 0,0.4477153 0,1 l 0,19.513672 c 0.01034678,0.538644 0.46136855,0.989654 0.99999995,1 l 5.22070345,0 V 23 c 5.52e-5,0.552262 0.4477381,0.999945 1,1 H 23 c 0.552262,-5.5e-5 0.999945,-0.447738 1,-1 v -5.123047 c -5.5e-5,-0.552262 -0.447738,-0.999945 -1,-1 H 7.2207034 c -0.5522619,5.5e-5 -0.9999448,0.447738 -1,1 v 1.636719 L 2,19.513672 v -8.283203 l 4.2207034,0 v 1.488281 c 5.52e-5,0.552262 0.4477381,0.999945 1,1 H 23 c 0.552262,-5.5e-5 0.999945,-0.447738 1,-1 V 7.5937501 c -5.5e-5,-0.5522619 -0.447738,-0.9999448 -1,-1 H 7.2207034 c -0.5522619,5.52e-5 -0.9999448,0.4477381 -1,1 V 9.2304689 L 2,9.2304689 2,1 C 2,0.4477153 1.5522847,0 0.99999995,0 Z M 8.2207034,8.5937501 H 22 V 11.71875 H 8.2207034 v -1.488281 z m 0,10.2832029 H 22 V 22 H 8.2207034 v -1.486328 z"
     sodipodi:nodetypes="sscccccccccccccccccccccccccsscccccccccccc" /></svg>
