<?xml version="1.0" encoding="UTF-8" standalone="no"?>
<!-- Created with Inkscape (http://www.inkscape.org/) -->

<svg
   width="24"
   height="24.000002"
   viewBox="0 0 24 24.000002"
   version="1.1"
   id="svg1"
   xml:space="preserve"
   sodipodi:docname="clock_icon.svg"
   inkscape:version="1.3.2 (091e20e, 2023-11-25, custom)"
   xmlns:inkscape="http://www.inkscape.org/namespaces/inkscape"
   xmlns:sodipodi="http://sodipodi.sourceforge.net/DTD/sodipodi-0.dtd"
   xmlns:xlink="http://www.w3.org/1999/xlink"
   xmlns="http://www.w3.org/2000/svg"
   xmlns:svg="http://www.w3.org/2000/svg"><sodipodi:namedview
     id="namedview1"
     pagecolor="#ffffff"
     bordercolor="#000000"
     borderopacity="0.25"
     inkscape:showpageshadow="2"
     inkscape:pageopacity="0.0"
     inkscape:pagecheckerboard="0"
     inkscape:deskcolor="#d1d1d1"
     inkscape:current-layer="svg1" /><defs
     id="defs1"><linearGradient
       id="swatch4"
       gradientTransform="translate(10802.77,7932.0594)"><stop
         style="stop-color:#5092bc;stop-opacity:1;"
         offset="0"
         id="stop4" /></linearGradient><linearGradient
       id="swatch38"
       gradientTransform="matrix(0.30377044,0,0,0.06360963,467.00114,1276.3586)"><stop
         style="stop-color:#0067ca;stop-opacity:1;"
         offset="0"
         id="stop38" /></linearGradient><linearGradient
       id="swatch26"
       gradientTransform="matrix(2.1373655,0,0,1.6391868,2219.8253,48.732877)"><stop
         style="stop-color:#cfe7fc;stop-opacity:1;"
         offset="0"
         id="stop26" /></linearGradient><linearGradient
       id="swatch25"><stop
         style="stop-color:#f5f7f8;stop-opacity:1;"
         offset="0"
         id="stop25" /></linearGradient><linearGradient
       id="swatch3"
       gradientTransform="matrix(0.96846214,0,0,1.0426288,1105.0222,1942.5453)"><stop
         style="stop-color:#1942a9;stop-opacity:1;"
         offset="0"
         id="stop3" /></linearGradient><linearGradient
       inkscape:collect="always"
       xlink:href="#swatch38"
       id="linearGradient2"
       x1="181.96992"
       y1="660.65222"
       x2="205.96992"
       y2="660.65222"
       gradientUnits="userSpaceOnUse"
       gradientTransform="translate(-181.96992,-660.65221)" /><linearGradient
       inkscape:collect="always"
       xlink:href="#swatch38"
       id="linearGradient3"
       gradientTransform="matrix(0.74044507,0,0,1.3505391,-181.96992,-660.65221)"
       x1="260.66291"
       y1="490.65211"
       x2="269.00608"
       y2="490.65211"
       gradientUnits="userSpaceOnUse" /><linearGradient
       inkscape:collect="always"
       xlink:href="#swatch38"
       id="linearGradient4"
       gradientTransform="matrix(1.4671861,0,0,0.6815768,-181.96992,-660.65221)"
       x1="136.09016"
       y1="985.82096"
       x2="139.02453"
       y2="985.82096"
       gradientUnits="userSpaceOnUse" /><linearGradient
       inkscape:collect="always"
       xlink:href="#swatch38"
       id="linearGradient5"
       gradientTransform="matrix(0.6815768,0,0,1.4671861,-181.96992,-660.65221)"
       x1="283.12278"
       y1="462.33831"
       x2="286.05715"
       y2="462.33831"
       gradientUnits="userSpaceOnUse" /><linearGradient
       inkscape:collect="always"
       xlink:href="#swatch38"
       id="linearGradient6"
       gradientTransform="matrix(1.4671861,0,0,0.6815768,-181.96992,-660.65221)"
       x1="125.38625"
       y1="985.82096"
       x2="128.32062"
       y2="985.82096"
       gradientUnits="userSpaceOnUse" /><linearGradient
       inkscape:collect="always"
       xlink:href="#swatch38"
       id="linearGradient7"
       gradientTransform="matrix(1.4671861,0,0,0.6815768,-181.96992,-660.65221)"
       x1="125.38625"
       y1="985.82096"
       x2="128.32062"
       y2="985.82096"
       gradientUnits="userSpaceOnUse" /></defs><path
     style="color:#000000;fill:url(#linearGradient2);stroke-linecap:round;stroke-linejoin:round;-inkscape-stroke:none"
     d="M 12,0 C 5.3844343,-1.2028302e-7 2.4056602e-7,5.3844343 0,12 0,18.615566 5.3844342,24 12,24 18.615566,24 24,18.615566 24,12 24,5.3844344 18.615566,0 12,0 Z m 0,2 C 17.534686,2 22,6.4653135 22,12 22,17.534687 17.534687,22 12,22 6.4653133,22 2,17.534687 2,12 2.0000002,6.4653135 6.4653135,1.9999999 12,2 Z"
     id="path72" /><path
     style="color:#000000;fill:url(#linearGradient3);stroke-linecap:round;stroke-linejoin:round;-inkscape-stroke:none"
     d="m 12.037109,1.9921875 a 1,1 0 0 0 -1,1 v 9.2675785 a 1.0001,1.0001 0 0 0 1.533204,0.845703 l 4.177734,-2.636719 a 1,1 0 0 0 0.3125,-1.3789062 1,1 0 0 0 -1.380859,-0.3125 L 13.037109,10.445313 V 2.9921875 a 1,1 0 0 0 -1,-1 z"
     id="path73" /><g
     id="path79"><path
       style="color:#000000;fill:#ffffff;stroke-linecap:round;stroke-linejoin:round;-inkscape-stroke:none"
       d="M 21.00494,12.26049 H 18.69967"
       id="path7" /><path
       style="color:#000000;fill:url(#linearGradient4);stroke-linecap:round;stroke-linejoin:round;-inkscape-stroke:none"
       d="m 18.699219,11.259766 a 1,1 0 0 0 -1,1 1,1 0 0 0 1,1 h 2.30664 a 1,1 0 0 0 1,-1 1,1 0 0 0 -1,-1 z"
       id="path8" /></g><g
     id="path83"><path
       style="color:#000000;fill:#ffffff;stroke-linecap:round;stroke-linejoin:round;-inkscape-stroke:none"
       d="M 12,20.98939 V 18.68412"
       id="path9" /><path
       style="color:#000000;fill:url(#linearGradient5);stroke-linecap:round;stroke-linejoin:round;-inkscape-stroke:none"
       d="m 12,17.683594 a 1,1 0 0 0 -1,1 v 2.30664 a 1,1 0 0 0 1,1 1,1 0 0 0 1,-1 v -2.30664 a 1,1 0 0 0 -1,-1 z"
       id="path10" /></g><path
     style="fill:#ffffff;fill-opacity:1;stroke:url(#linearGradient6);stroke-width:2;stroke-linecap:round;stroke-linejoin:round;stroke-dasharray:none"
     d="M 2.99504,12.26049 H 5.30031"
     id="path86" /><g
     id="path74"><path
       style="color:#000000;fill:#ffffff;stroke-linecap:round;stroke-linejoin:round;-inkscape-stroke:none"
       d="M 2.99504,12.26049 H 5.30031"
       id="path11" /><path
       style="color:#000000;fill:url(#linearGradient7);stroke-linecap:round;stroke-linejoin:round;-inkscape-stroke:none"
       d="m 2.9941406,11.259766 a 1,1 0 0 0 -1,1 1,1 0 0 0 1,1 h 2.3066406 a 1,1 0 0 0 1,-1 1,1 0 0 0 -1,-1 z"
       id="path12" /></g><circle
     style="fill:#cfe7fc;fill-opacity:1;stroke:none;stroke-width:2.00001;stroke-linecap:round;stroke-linejoin:round;stroke-dasharray:none;stroke-opacity:1"
     id="circle13"
     cx="16.458052"
     cy="12.306125"
     r="1"
     transform="rotate(30)" /><path
     id="circle6"
     style="fill:#cfe7fc;stroke-width:2.00001;stroke-linecap:round;stroke-linejoin:round"
     transform="rotate(-30)"
     d="m 5.3922896,24.192152 a 1,1 0 0 1 -1,1 1,1 0 0 1 -1,-1 1,1 0 0 1 1,-1 1,1 0 0 1 1,1 z" /><path
     id="circle7"
     style="fill:#cfe7fc;stroke-width:2.00001;stroke-linecap:round;stroke-linejoin:round"
     transform="rotate(-60)"
     d="m -3.3923435,24.192205 a 1,1 0 0 1 -1,1 1,1 0 0 1 -1,-1 1,1 0 0 1 1,-1 1,1 0 0 1 1,1 z" /><path
     id="circle8"
     style="fill:#cfe7fc;stroke-width:2.00001;stroke-linecap:round;stroke-linejoin:round"
     transform="rotate(-120)"
     d="m -15.3923,12.192157 a 1,1 0 0 1 -1,1 1,1 0 0 1 -1,-1 1,1 0 0 1 1,-1 1,1 0 0 1 1,1 z" /><path
     id="circle9"
     style="fill:#cfe7fc;stroke-width:2.00001;stroke-linecap:round;stroke-linejoin:round"
     transform="rotate(-150)"
     d="m -15.392317,3.4075265 a 1,1 0 0 1 -1,1 1,1 0 0 1 -1,-1 1,1 0 0 1 1,-1 1,1 0 0 1 1,1 z" /><path
     id="circle10"
     style="fill:#cfe7fc;stroke-width:2.00001;stroke-linecap:round;stroke-linejoin:round"
     transform="rotate(150)"
     d="m -3.3922844,-8.5924406 a 1,1 0 0 1 -1,1 1,1 0 0 1 -1,-1 1,1 0 0 1 1,-1 1,1 0 0 1 1,1 z" /><path
     id="circle11"
     style="fill:#cfe7fc;stroke-width:2.00001;stroke-linecap:round;stroke-linejoin:round"
     transform="rotate(120)"
     d="m 5.3923397,-8.5924406 a 1,1 0 0 1 -1,1 1,1 0 0 1 -1,-1 1,1 0 0 1 1,-1 1,1 0 0 1 1,1 z" /><path
     id="circle12"
     style="fill:#cfe7fc;stroke-width:2.00001;stroke-linecap:round;stroke-linejoin:round"
     transform="rotate(60)"
     d="m 17.3923,3.407594 a 1,1 0 0 1 -1,1 1,1 0 0 1 -1,-1 1,1 0 0 1 1,-1 1,1 0 0 1 1,1 z" /><path
     id="path6"
     style="fill:#cfe7fc;stroke-width:2.00001;stroke-linecap:round;stroke-linejoin:round"
     transform="rotate(30)"
     d="m 17.392317,12.192264 a 1,1 0 0 1 -1,1 1,1 0 0 1 -1,-1 1,1 0 0 1 1,-1 1,1 0 0 1 1,1 z" /></svg>
