<?xml version="1.0" encoding="UTF-8" standalone="no"?>
<!-- Created with Inkscape (http://www.inkscape.org/) -->

<svg
   width="32"
   height="31.999996"
   viewBox="0 0 32 31.999996"
   version="1.1"
   id="svg1"
   xml:space="preserve"
   xmlns="http://www.w3.org/2000/svg"
   xmlns:svg="http://www.w3.org/2000/svg"><defs
     id="defs1" /><g
     id="layer1"
     transform="translate(-95.65255,-37.986927)"><g
       id="g35"
       transform="matrix(3.0423418,0,0,3.0423418,-149.86004,36.978523)"
       style="stroke-width:0.5"><rect
         style="font-variation-settings:'wght' 700;fill:#000000;fill-opacity:1;stroke:none;stroke-width:1;stroke-linecap:butt;stroke-linejoin:round;stroke-dasharray:none;stroke-opacity:1;paint-order:fill markers stroke"
         id="rect28"
         width="10.518213"
         height="10.518213"
         x="80.698555"
         y="0.33145627"
         ry="1.3921164"
         rx="1.3921164" /><g
         id="g34"
         style="fill:#ffffff;stroke-width:0.5"
         transform="translate(0.26820813,0.00267226)"><path
           id="path29"
           style="color:#000000;fill:#ffffff;stroke-width:0.5;stroke-linejoin:round;-inkscape-stroke:none;paint-order:fill markers stroke"
           d="m 82.863281,4.1992188 v 1.2949218 c 0,0.1140185 -0.009,0.3534763 -0.05859,0.5800782 -0.02869,0.1311417 -0.07426,0.2512079 -0.126954,0.34375 h -0.230468 v 1.1054687 h 0.5 V 6.9179688 h 1.53125 v 0.6054687 h 0.5 V 6.4179688 h -0.273438 v -1.71875 -0.5 h -0.5 -0.841797 -0.498047 z m 0.5,0.5 h 0.841797 v 1.71875 h -0.976562 c 0.02638,-0.079292 0.0475,-0.1588576 0.06445,-0.2363282 0.06217,-0.2841658 0.07031,-0.5517667 0.07031,-0.6875 z" /><path
           id="path31"
           style="color:#000000;fill:#ffffff;stroke-width:0.5;stroke-linejoin:round;-inkscape-stroke:none;paint-order:fill markers stroke"
           d="m 87.851562,4.6582031 c -0.421898,5e-7 -0.767578,0.3476315 -0.767578,0.7695313 0,0.28587 0.158993,0.5359111 0.392578,0.6679687 l -0.478515,0.828125 h 0.578125 l 0.419922,-0.7285156 h 0.435547 v 0.7285156 h 0.5 v -2.265625 h -0.06055 -0.439453 -0.439453 z m -0.01367,0.5 c 0.0047,-2.276e-4 0.0089,0 0.01367,0 h 0.140626 0.439453 v 0.5371094 h -0.439453 -0.140626 c -0.151678,-2e-7 -0.267578,-0.1158975 -0.267578,-0.2675781 0,-0.1469407 0.109209,-0.2624751 0.253908,-0.2695313 z" /><g
           id="g33"
           style="fill:#ffffff;stroke-width:0.5"><path
             style="color:#000000;fill:#ffffff;stroke-width:0.5;stroke-linejoin:round;-inkscape-stroke:none;paint-order:fill markers stroke"
             d="m 86.167969,4.609375 -0.847657,0.066406 0.03906,0.5 0.490234,-0.039063 c -0.102428,0.368779 -0.280753,1.0133395 -0.318359,1.1308594 -0.05805,0.1814031 -0.04529,0.3665547 0.08008,0.5390625 0.06269,0.086254 0.173187,0.166341 0.302734,0.1796875 0.129548,0.013346 0.254132,-0.0314 0.365235,-0.1054687 C 86.605184,6.6636 86.892577,6.4394524 86.892577,6.4394524 L 86.583984,6.0449219 c 0,0 -0.27123,0.2104848 -0.572265,0.4121093 -0.0021,-0.017643 -0.0057,-0.031594 -0.0039,-0.037109 0.07595,-0.2373579 0.419922,-1.4941406 0.419922,-1.4941407 A 0.250025,0.250025 0 0 0 86.167969,4.609375 Z"
             id="path32" /><path
             id="path33"
             style="font-variation-settings:'wght' 700;fill:#ffffff;stroke-width:0.249999;stroke-linejoin:round;paint-order:fill markers stroke"
             d="m 86.605469,4.0117187 a 0.359375,0.359375 0 0 1 -0.359375,0.359375 0.359375,0.359375 0 0 1 -0.359375,-0.359375 0.359375,0.359375 0 0 1 0.359375,-0.3593749 0.359375,0.359375 0 0 1 0.359375,0.3593749 z" /></g></g></g></g></svg>
