<?xml version="1.0" encoding="UTF-8" standalone="no"?>
<!-- Created with Inkscape (http://www.inkscape.org/) -->

<svg
   width="25.251953"
   height="31.912109"
   viewBox="0 0 25.251953 31.912109"
   version="1.1"
   id="svg1"
   xmlns="http://www.w3.org/2000/svg"
   xmlns:svg="http://www.w3.org/2000/svg">
  <defs
     id="defs1" />
  <g
     id="layer1"
     transform="translate(-50.447266,-152.66406)">
    <path
       id="path53"
       style="color:#000000;-inkscape-font-specification:Oswald;fill:#0044aa;-inkscape-stroke:none;paint-order:stroke fill markers"
       d="m 63.132812,165.62891 c -0.721705,0 -1.321182,0.13542 -1.787109,0.42968 -0.451302,0.28207 -0.784638,0.7046 -0.986328,1.23633 v 0.002 c -0.190066,0.51589 -0.28125,1.1224 -0.28125,1.81835 v 3.87891 c 0,0.69597 0.0909,1.31524 0.279297,1.85352 0.19276,0.54156 0.526288,0.97623 0.984375,1.27539 0.466337,0.30455 1.067548,0.44531 1.791015,0.44531 0.723468,0 1.324076,-0.13923 1.783204,-0.44531 l 0.002,-0.002 c 0.44655,-0.307 0.772455,-0.74327 0.964843,-1.28125 v -0.002 c 0.19772,-0.53098 0.294922,-1.14192 0.294922,-1.83008 v -3.89258 c 0,-0.69554 -0.09625,-1.30211 -0.294922,-1.81835 -0.193226,-0.52447 -0.521543,-0.94625 -0.970703,-1.23633 -0.458958,-0.29642 -1.056845,-0.43164 -1.779297,-0.43164 z m 6.763672,0 c -0.757597,0 -1.375967,0.14936 -1.83789,0.47656 -0.441659,0.31056 -0.756163,0.75931 -0.929688,1.31641 v 0.002 0.002 c -0.160277,0.54317 -0.238281,1.16967 -0.238281,1.87891 v 3.61523 c 0,0.65197 0.07874,1.24839 0.238281,1.78906 v 0.002 0.002 c 0.173351,0.55655 0.484641,1.01471 0.921875,1.34961 l 0.002,0.002 c 0.46179,0.34635 1.084215,0.50391 1.84375,0.50391 0.706387,0 1.281869,-0.1352 1.710938,-0.4375 h 0.002 v -0.002 c 0.413739,-0.30091 0.709414,-0.72313 0.875,-1.23829 0.161027,-0.5099 0.240234,-1.08665 0.240234,-1.73046 v -1.00977 h -1.853515 v 1.00977 c 0,0.39577 -0.0205,0.739 -0.06055,1.02734 -0.03644,0.26234 -0.121609,0.44365 -0.246094,0.57617 -0.101058,0.10036 -0.305848,0.17969 -0.65625,0.17969 -0.29657,0 -0.506837,-0.0574 -0.646484,-0.14844 -0.132549,-0.0864 -0.239578,-0.23513 -0.3125,-0.48828 -0.07452,-0.26825 -0.117188,-0.65982 -0.117188,-1.16016 v -4.05664 c 0,-0.41055 0.02473,-0.76471 0.07227,-1.05859 v -0.002 c 0.05235,-0.27764 0.151552,-0.46466 0.287109,-0.58789 l 0.002,-0.002 0.0039,-0.002 c 0.119687,-0.11425 0.342938,-0.19531 0.710937,-0.19531 0.362343,0 0.578153,0.0772 0.675781,0.16992 0.118985,0.11304 0.197614,0.27601 0.226563,0.5293 v 0.006 0.004 c 0.03982,0.27079 0.06055,0.59102 0.06055,0.96094 v 0.9707 h 1.853515 v -1.05859 c 0,-0.63722 -0.08736,-1.19358 -0.269531,-1.66797 -0.177135,-0.48307 -0.486237,-0.87099 -0.910156,-1.13477 -0.425566,-0.27029 -0.978097,-0.39257 -1.648438,-0.39257 z m -16.289062,0.0879 v 10.73828 c 0,0 2.027882,0 2.58789,0 0.745639,0 1.359082,-0.12912 1.833985,-0.41406 h 0.002 v -0.002 c 0.475008,-0.28873 0.822695,-0.7188 1.025391,-1.25976 v -0.002 c 0.208307,-0.53512 0.308593,-1.17567 0.308593,-1.92187 v -3.76563 c 0,-0.71358 -0.100133,-1.32223 -0.310546,-1.82617 -0.205324,-0.51152 -0.568743,-0.91009 -1.060547,-1.16211 -0.491172,-0.26447 -1.129781,-0.38476 -1.914063,-0.38476 z m 9.52539,1.52539 c 0.345845,0 0.575546,0.0709 0.707032,0.17383 l 0.002,0.002 0.002,0.002 c 0.142765,0.10552 0.242028,0.25594 0.298828,0.49024 v 0.002 c 0.06072,0.24289 0.09375,0.54774 0.09375,0.91211 v 4.48633 c 0,0.36361 -0.03222,0.67722 -0.09375,0.93945 -0.05682,0.23439 -0.157743,0.39777 -0.30664,0.52148 -0.13184,0.10194 -0.359304,0.17188 -0.703126,0.17188 -0.342974,0 -0.572283,-0.0686 -0.714843,-0.17383 -0.147796,-0.12324 -0.247941,-0.28489 -0.304688,-0.51758 v -0.002 c -0.06153,-0.26223 -0.09375,-0.57584 -0.09375,-0.93945 v -4.48633 c 0,-0.36437 0.03303,-0.66922 0.09375,-0.91211 v -0.002 c 0.0568,-0.2343 0.15411,-0.38472 0.296875,-0.49024 l 0.002,-0.002 c 0.142229,-0.10667 0.374859,-0.17578 0.720703,-0.17578 z m -7.597656,0.0371 h 0.521485 c 0.462855,0 0.776785,0.0797 0.935547,0.18554 0.167653,0.11177 0.278131,0.2807 0.335937,0.5625 0.06209,0.30267 0.0957,0.71802 0.0957,1.23828 v 3.32422 c 0,0.54002 -0.02561,0.99847 -0.07422,1.3711 v 0.002 0.004 c -0.0376,0.34597 -0.146042,0.57486 -0.3125,0.72851 -0.146304,0.13505 -0.453193,0.23633 -0.943359,0.23633 h -0.558594 z" />
    <path
       id="path78"
       style="color:#000000;fill:#0044aa;stroke-linejoin:round;-inkscape-stroke:none;paint-order:stroke fill markers"
       d="m 51.447266,152.66406 a 1.0001,1.0001 0 0 0 -1,1 v 29.91211 a 1.0001,1.0001 0 0 0 1,1 h 23.251953 a 1.0001,1.0001 0 0 0 1,-1 v -22.33398 a 1,1 0 0 0 -0.01758,-0.1836 1.000105,1.000105 0 0 0 -0.01758,-0.0645 1,1 0 0 0 -0.03516,-0.11328 1.000105,1.000105 0 0 0 -0.03516,-0.0781 1,1 0 0 0 -0.04687,-0.084 1.000105,1.000105 0 0 0 -0.04883,-0.0723 1,1 0 0 0 -0.06445,-0.0781 1.000105,1.000105 0 0 0 -0.02734,-0.0332 l -7.578125,-7.57813 a 1.000105,1.000105 0 0 0 -0.02344,-0.0176 1,1 0 0 0 -0.199219,-0.14843 1.000105,1.000105 0 0 0 -0.04687,-0.0215 1,1 0 0 0 -0.220703,-0.0781 1.000105,1.000105 0 0 0 -0.0293,-0.008 1,1 0 0 0 -0.1875,-0.0195 z m 1,2 h 13.673828 v 6.57813 a 1.000105,1.000105 0 0 0 1,1 h 6.578125 v 20.33398 H 52.447266 Z" />
  </g>
</svg>
