<?xml version="1.0" encoding="UTF-8" standalone="no"?>
<!-- Created with Inkscape (http://www.inkscape.org/) -->

<svg
   width="25.251953"
   height="31.912109"
   viewBox="0 0 25.251953 31.912109"
   version="1.1"
   id="svg1"
   xmlns="http://www.w3.org/2000/svg"
   xmlns:svg="http://www.w3.org/2000/svg">
  <defs
     id="defs1" />
  <g
     id="layer1"
     transform="translate(-220.36133,-151.25195)">
    <path
       id="path60"
       style="color:#000000;fill:#4d4d4d;stroke-linejoin:round;-inkscape-stroke:none;paint-order:stroke fill markers"
       d="m 221.36133,151.25195 a 1.0001,1.0001 0 0 0 -1,1 v 29.91211 a 1.0001,1.0001 0 0 0 1,1 h 23.25195 a 1.0001,1.0001 0 0 0 1,-1 v -22.33398 a 1,1 0 0 0 -0.0176,-0.1836 1.000105,1.000105 0 0 0 -0.0176,-0.0644 1,1 0 0 0 -0.0352,-0.11328 1.000105,1.000105 0 0 0 -0.0352,-0.0781 1,1 0 0 0 -0.0469,-0.084 1.000105,1.000105 0 0 0 -0.0488,-0.0723 1,1 0 0 0 -0.0645,-0.0781 1.000105,1.000105 0 0 0 -0.0273,-0.0332 l -7.57812,-7.57813 a 1.000105,1.000105 0 0 0 -0.0234,-0.0176 1,1 0 0 0 -0.19922,-0.14843 1.000105,1.000105 0 0 0 -0.0469,-0.0215 1,1 0 0 0 -0.22071,-0.0781 1.000105,1.000105 0 0 0 -0.0293,-0.008 1,1 0 0 0 -0.1875,-0.0195 z m 1,2 h 13.67383 v 6.57813 a 1.000105,1.000105 0 0 0 1,1 h 6.57812 v 20.33398 h -21.25195 z" />
  </g>
</svg>
