<?xml version="1.0" encoding="UTF-8" standalone="no"?>
<!-- Created with Inkscape (http://www.inkscape.org/) -->

<svg
   width="110"
   height="110"
   viewBox="0 0 110 110"
   version="1.1"
   id="svg1"
   xml:space="preserve"
   xmlns="http://www.w3.org/2000/svg"
   xmlns:svg="http://www.w3.org/2000/svg"><defs
     id="defs1" /><g
     id="layer1"
     transform="translate(-5,169.01131)"><rect
       style="fill:#5384ea;fill-opacity:1;stroke:none;stroke-width:5;stroke-linecap:round;stroke-linejoin:round;stroke-dasharray:none;paint-order:markers stroke fill"
       id="rect2"
       width="110"
       height="110"
       x="5"
       y="-169.01131"
       rx="55"
       ry="55" /><path
       id="path9"
       style="font-weight:800;font-size:21.3333px;line-height:1.5;font-family:Montserrat;-inkscape-font-specification:'Montserrat Ultra-Bold';letter-spacing:0px;word-spacing:0px;fill:#ffffff;stroke:none;stroke-width:4.33565;stroke-linecap:round;stroke-linejoin:round;stroke-dasharray:none;paint-order:markers stroke fill"
       d="m 77.806641,-151.70117 c -7.471708,0 -13.229118,2.02013 -17.273438,6.06445 -3.975768,3.97577 -5.96875,9.3253 -5.96875,16.04297 v 12.51953 h -8.123047 v 14.59766 h 8.123047 v 43.197263 c 1.788148,0.173931 3.600235,0.267578 5.435547,0.267578 4.880567,0 9.606097,-0.636052 14.105469,-1.818359 v -41.646482 h 12.75 v -14.59766 h -12.75 v -0.18359 l -0.511719,-8.12305 v -4.00976 c 0,-2.46772 0.543861,-4.2839 1.640625,-5.44922 1.165313,-1.23386 2.777552,-1.84961 4.833984,-1.84961 1.028219,0 2.057724,0.16898 3.085938,0.51172 1.028219,0.27419 1.952819,0.65492 2.775391,1.13476 l 4.833984,-13.78125 c -1.576597,-0.95981 -3.530702,-1.67447 -5.861328,-2.1543 -2.330622,-0.47983 -4.696536,-0.72265 -7.095703,-0.72265 z" /></g></svg>
