<?xml version="1.0" encoding="UTF-8" standalone="no"?>
<!-- Created with Inkscape (http://www.inkscape.org/) -->

<svg
   width="25.252304"
   height="31.912228"
   viewBox="0 0 25.252304 31.912228"
   version="1.1"
   id="svg1"
   xmlns="http://www.w3.org/2000/svg"
   xmlns:svg="http://www.w3.org/2000/svg">
  <defs
     id="defs1" />
  <g
     id="layer1"
     transform="translate(-136.74586,-0.0574642)">
    <path
       id="path12"
       style="fill:#6600ff;stroke:#6600ff;stroke-width:2.00001;stroke-linejoin:round;stroke-dasharray:none;paint-order:stroke fill markers"
       d="m 160.99817,8.6353852 h -7.57812 v 0 -7.577921 z" />
    <path
       id="path13"
       style="fill:none;stroke:#6600ff;stroke-width:2;stroke-linecap:round;stroke-linejoin:round;stroke-dasharray:none;paint-order:stroke fill markers"
       d="m 153.42005,1.0574642 -15.67418,3e-7 V 30.969692 h 23.2523 V 8.6353849" />
    <rect
       style="fill:none;stroke:#6600ff;stroke-width:2;stroke-linecap:round;stroke-linejoin:round;paint-order:stroke fill markers"
       id="rect19"
       width="11.535428"
       height="11.535428"
       x="143.60431"
       y="14.140944" />
    <path
       style="fill:#6600ff;fill-rule:nonzero;stroke:none;stroke-width:2;stroke-linecap:round;stroke-linejoin:round;paint-order:stroke fill markers"
       d="m 145.01581,17.978047 c -10e-4,-0.0016 0.0503,0.06267 0.30912,0.419982 0.16936,0.233775 0.65665,0.943301 1.21958,1.80973 0.40761,0.62738 0.82427,1.290865 1.19608,1.925431 0.19538,0.333453 0.35948,0.626618 0.50018,0.889194 0.17042,0.318055 0.2736,0.529058 0.36269,0.707195 l 1.97251,-0.232846 c 0.009,-0.08581 0.0183,-0.169982 0.0274,-0.252488 0.3446,-3.135298 0.77416,-5.70795 1.25466,-7.445581 0.25377,-0.9177 0.55555,-1.822091 0.9054,-2.673879 0.47441,-1.155043 0.9054,-1.892035 1.15114,-2.310177 0.24099,-0.410034 0.26555,-0.496671 0.24071,-0.527603 -0.0248,-0.03093 -0.14811,-0.05105 -0.53743,0.272739 -0.40326,0.33538 -1.01196,1.001883 -1.69115,2.145343 -0.49633,0.835598 -0.92677,1.750698 -1.29886,2.675612 -0.75122,1.867287 -1.54635,4.23354 -2.044,7.602807 -0.0126,0.08519 -0.0251,0.1721 -0.0377,0.260716 l 1.97251,-0.232846 c -0.0811,-0.271723 -0.20901,-0.587607 -0.38928,-0.954766 -0.15279,-0.311176 -0.33798,-0.648503 -0.55026,-1.006848 -0.40095,-0.676858 -0.87012,-1.380695 -1.30856,-2.007102 -0.59601,-0.851552 -1.17124,-1.606375 -1.32869,-1.821683 -0.26937,-0.368344 -0.32488,-0.441328 -0.32608,-0.442928 z"
       id="path19"
       transform="translate(0.2496846,0.29962152)" />
    <g
       id="g21"
       transform="matrix(-0.9434996,-0.33137366,-0.33137366,0.9434996,2232.218,-371.10992)">
      <path
         style="fill:#b380ff;stroke:none;stroke-width:40;stroke-linecap:round;stroke-linejoin:round;stroke-dasharray:none"
         d="m 1740.9902,727.97852 c -5.5599,0.16154 -9.226,2.62497 -11.5,7.54882 l -1.0644,2.30664 a 3.4015748,3.4015748 0 0 0 -0.3145,1.41602 l -0.1855,59.51758 c -0.171,55.22224 -0.3965,59.04688 -0.3965,59.04687 -1.1782,2.15206 -3.6905,2.94273 -5.6621,1.98828 -0.5232,-0.25327 -1.4214,-1.13979 -6.2363,-7.42187 -3.2218,-4.20356 -6.9186,-8.64128 -7.5957,-9.21289 -4.4754,-3.7773 -10.4052,-5.10166 -15.3399,-2.64258 -2.6206,1.3059 -6.1389,4.15363 -7.334,6.46484 -1.9058,3.68546 -0.4144,11.00224 2.0996,14.70704 1.0969,1.61641 10.1335,13.42885 21.211,27.92187 11.0757,14.49078 20.496,26.81971 20.5156,26.8457 2.3311,3.09443 5.4841,0.97072 8.0742,-0.79297 15.4634,-10.52939 42.3102,-14.96169 64.6953,-10.38281 11.3255,2.31663 24.8689,7.31038 35.3496,13.03906 l 3.1329,1.71094 a 3.4015748,3.4015748 0 0 0 4.998,-2.49804 l 1.1875,-8.18946 c 1.1457,-7.8994 6.7715,-66.51614 6.7715,-70.53125 0,-2.68976 -1.2949,-6.8782 -2.832,-9.49219 -2.9553,-5.02545 -10.2221,-10.13954 -15.2032,-8.55859 -3.5269,1.11884 -3.1425,3.65237 -3.1425,13.42969 -1e-4,10.38108 -0.058,9.72701 -0.9493,10.74219 -0.3728,0.42473 -1.6218,1.0384 -3.0195,1.03906 -1.3028,7.5e-4 -1.9559,-0.29411 -2.7637,-1.14453 -1.1481,-1.2086 -1.2031,-0.0856 -1.2031,-17.08594 0,-16.68213 -0.2048,-19.98351 -2.1309,-24.35352 -1.552,-3.5214 -3.1918,-5.65256 -6.2812,-7.16406 -2.2518,-1.10167 -3.6907,-1.31372 -6.6133,-1.14453 -2.6071,0.15093 -4.3314,0.56034 -6.414,1.625 l -2.125,1.08789 a 3.4015748,3.4015748 0 0 0 -1.8497,2.97852 l -0.1836,12.70117 c -0.1021,7.0387 -0.1484,10.28478 -0.4355,11.97851 -0.085,0.50302 0.2182,0.44781 -1.1426,1.64258 -1.5386,1.3509 -3.6137,1.35091 -5.1523,0 -1.8271,-1.60428 -1.139,-1.80507 -1.1504,-1.88867 -0.296,-2.17374 -0.3327,-6.48748 -0.4434,-15.78906 -0.1901,-15.97743 -0.3021,-17.59461 -1.1777,-20.2168 -1.9468,-5.83032 -6.3696,-9.49237 -12.2422,-8.79687 -3.388,0.40127 -7.5266,2.43643 -10.1191,4.82617 l -1.6836,1.55273 a 3.4015748,3.4015748 0 0 0 -1.0957,2.5 v 13.28906 c 0,12.77392 -9e-4,12.50584 -0.4434,13.41993 -1.2024,2.48376 -5.2115,2.71637 -7.0156,0.084 l -0.2988,-0.43555 -0.1797,-37.31054 -0.1836,-38.35352 a 3.4015748,3.4015748 0 0 0 -0.2539,-1.27344 l -0.8125,-1.98242 c -2.4374,-5.95151 -5.3957,-8.3371 -11.5879,-8.70703 -0.7824,-0.0467 -1.5423,-0.0624 -2.2774,-0.041 z"
         id="path20" />
      <path
         id="path21"
         style="color:#000000;fill:#ffffff;stroke-width:1;stroke-linecap:round;stroke-linejoin:round;-inkscape-stroke:none"
         d="m 1741.9127,716.58804 c -11.3768,0 -19.0672,6.83171 -22.241,13.05365 -3.1737,6.22195 -3.2017,12.24362 -3.2017,12.24362 a 7.2705067,7.2705067 0 0 0 0,0.14695 v 93.42236 c -1.7083,-1.54247 -4.3622,-3.63046 -7.9649,-5.25143 -6.2278,-2.80209 -16.1482,-3.67512 -25.1397,2.68287 -9.1471,6.46815 -11.0853,16.70381 -9.8916,23.60477 1.1938,6.90097 4.6502,11.86522 4.6502,11.86522 a 7.2705067,7.2705067 0 0 0 0.2548,0.35497 l 47.4524,62.10479 a 7.2705067,7.2705067 0 0 0 11.9674,-0.60274 c 0,0 1.1711,-2.30138 7.0824,-5.99402 5.9112,-3.69264 16.1335,-8.03257 33.0917,-9.33144 32.3194,-2.47543 65.6168,20.48459 65.6168,20.48459 a 7.2705067,7.2705067 0 0 0 11.418,-4.88509 l 4.2064,-29.28784 a 7.2705067,7.2705067 0 0 0 0.043,-0.36846 c 0,0 4.5614,-49.65811 5.4523,-59.23024 1.0326,-11.09258 -4.4433,-21.0803 -12.3373,-27.0629 -3.947,-2.9913 -8.6659,-5.05649 -13.8417,-5.31248 -1.0582,-0.0523 -2.1333,0.006 -3.2103,0.1278 -0.6685,-5.61695 -2.1961,-10.33359 -4.5457,-14.23855 -3.7673,-6.26097 -9.7865,-9.94746 -15.6365,-11.08287 -5.4714,-1.06195 -10.7071,-0.21804 -15.2253,1.53134 -0.9891,-3.03004 -2.3439,-5.72451 -4.1049,-8.02231 -3.9837,-5.19779 -9.8706,-7.978 -15.5008,-8.48307 -4.5149,-0.405 -8.9385,0.34273 -12.9485,1.98357 v -29.00884 a 7.2705067,7.2705067 0 0 0 0,-0.14695 c 0,0 -0.028,-6.02167 -3.2019,-12.24362 -3.1738,-6.22194 -10.8641,-13.05365 -22.241,-13.05365 z m 0,14.53956 c 6.4305,0 7.8273,2.25552 9.2889,5.12079 1.4574,2.8572 1.6149,5.90301 1.6158,5.92019 v 44.96117 26.87546 a 7.2697798,7.2697798 0 0 0 7.2698,7.26979 7.2697798,7.2697798 0 0 0 7.2698,-7.26979 v -24.8784 c 2.2277,-2.96919 7.7191,-5.9405 11.6494,-5.58794 2.2029,0.19763 3.7588,0.88827 5.2599,2.84686 1.5011,1.9586 3.0059,5.68318 3.0059,12.299 v 25.36045 a 7.2697798,7.2697798 0 0 0 7.2697,7.26978 7.2697798,7.2697798 0 0 0 7.2698,-7.26978 v -22.91045 c 0.5739,-0.5122 1.5188,-1.29679 2.832,-1.85508 2.3359,-0.99309 5.3407,-1.43706 7.7227,-0.97474 2.3819,0.46231 4.2079,1.41218 5.9485,4.30507 1.7407,2.89289 3.2553,8.22066 2.7511,17.08752 a 7.2705067,7.2705067 0 0 0 0.019,0.10224 7.2697798,7.2697798 0 0 0 -0.031,0.31025 v 21.93215 a 7.2697798,7.2697798 0 0 0 7.2698,7.26978 7.2697798,7.2697798 0 0 0 7.2698,-7.26978 v -18.03388 c 0.71,-0.23708 1.4193,-0.30071 2.2171,-0.26126 1.6547,0.0818 3.754,0.84423 5.7782,2.3783 4.0485,3.06816 7.1267,8.92284 6.6422,14.12779 -0.8938,9.6027 -5.4081,58.74976 -5.4367,59.06058 l -2.5991,18.09707 c -13.19,-7.53096 -38.1676,-19.10086 -65.3343,-17.0201 -18.9965,1.45499 -31.6794,6.49639 -39.6842,11.49677 -1.8471,1.15386 -3.4424,2.34219 -4.8432,3.49219 l -42.1839,-55.20987 c -0.065,-0.10341 -1.777,-2.84496 -2.3499,-6.1573 -0.5839,-3.3752 -0.8186,-5.87677 3.9586,-9.25477 4.933,-3.48817 7.7505,-2.65786 10.7797,-1.29493 2.9574,1.3306 4.8623,3.38363 4.9539,3.48297 l 10.4703,13.70183 a 7.2705067,7.2705067 0 0 0 13.0458,-4.4137 V 742.16858 c 0,-0.0172 0.1584,-3.06299 1.6158,-5.92019 1.4616,-2.86527 2.8584,-5.12079 9.2889,-5.12079 z" />
      <path
         id="path26"
         style="fill:none;stroke:#2a7fff;stroke-width:2;stroke-linecap:round;stroke-linejoin:round;paint-order:stroke fill markers"
         d="m 1870.0199,1023.6757 -20.6595,-7.256 m 26.2082,-8.5424 -20.6595,-7.256 m 20.5593,16.0944 -26.0077,-9.1344 m 17.571,-8.43658 -9.1344,26.00768 m -2.3732,-15.4415 c -2.5224,7.1819 -1.4599,14.0953 2.3733,15.4415 3.8331,1.3462 8.9852,-3.3844 11.5076,-10.5663 2.5223,-7.1818 1.4598,-14.0951 -2.3732,-15.44138 -3.8332,-1.3463 -8.9853,3.38438 -11.5077,10.56618 z m -6.0634,-2.1296 a 13.78259,13.78259 0 0 0 8.4367,17.5711 13.78259,13.78259 0 0 0 17.5711,-8.4367 13.78259,13.78259 0 0 0 -8.4367,-17.57098 13.78259,13.78259 0 0 0 -17.5711,8.43658 z" />
      <text
         xml:space="preserve"
         style="font-weight:500;font-size:18.6667px;line-height:1.5;font-family:Montserrat;-inkscape-font-specification:'Montserrat Medium';text-decoration-color:#000000;letter-spacing:0px;word-spacing:0px;fill:#2a7fff;stroke:none;stroke-width:2;stroke-linecap:round;stroke-linejoin:round;paint-order:stroke fill markers"
         x="-2054.604"
         y="343.75479"
         id="text26"
         transform="matrix(-0.9434996,-0.33137366,-0.33137366,0.9434996,0,0)"><tspan
           id="tspan26"
           x="-2054.604"
           y="343.75479"
           style="font-style:normal;font-variant:normal;font-weight:normal;font-stretch:normal;font-size:18.6667px;font-family:Oswald;-inkscape-font-specification:Oswald">www</tspan></text>
      <path
         id="path54"
         style="color:#000000;fill:#2a7fff;stroke-linecap:round;stroke-linejoin:round;-inkscape-stroke:none;paint-order:stroke fill markers"
         d="m 1803.5871,1028.0492 c 4.3767,1.5372 7.5146,4.9589 8.9625,9.0206 a 1,1 0 0 1 0.2166,0.5915 c 0.9039,2.9219 0.9581,6.1307 -0.1311,9.2321 -1.1111,3.1635 -3.2223,5.6642 -5.8259,7.381 a 1,1 0 0 1 -0.2576,0.1559 c -3.6893,2.3266 -8.3353,3.0675 -12.7614,1.5129 -4.4257,-1.5543 -7.5871,-5.0359 -9.0116,-9.1579 a 1,1 0 0 1 -0.1071,-0.2902 c -0.9569,-2.9665 -1.0409,-6.237 0.07,-9.3986 1.1106,-3.1618 3.2226,-5.6605 5.8245,-7.3773 a 1,1 0 0 1 0.2608,-0.1589 c 2.0864,-1.3158 4.4567,-2.1647 6.9512,-2.3219 v 6e-4 c 1.9162,-0.1207 3.8848,0.1348 5.8077,0.8102 z m 0.1513,2.5869 -1.0024,2.8483 3.0614,1.0732 c -0.3215,-1.9407 -1.0976,-3.1606 -2.059,-3.9215 z m -1.8889,-0.6634 c -1.2263,-0.01 -2.5943,0.4588 -4.0589,1.7727 l 3.0602,1.0769 z m 5.2777,2.4374 v -7e-4 c 0.2265,0.661 0.5711,1.2215 0.6851,1.963 0.044,0.2734 -0.018,0.6119 0.01,0.8958 l 2.0448,0.7203 c -0.7129,-1.3251 -1.5892,-2.5677 -2.7384,-3.5784 z m -9.0321,-3.1702 c -0.066,10e-4 -0.1352,-0.011 -0.2012,-0.011 h -7e-4 c -1.4587,0.09 -2.8484,0.5264 -4.1727,1.089 l 2.0454,0.7184 c 0.1998,-0.2049 0.3652,-0.5086 0.5696,-0.6963 0.5522,-0.507 1.17,-0.7284 1.7596,-1.1023 z m 9.7466,8.1554 c -0.042,2.0227 -0.3479,4.1505 -1.0393,6.3897 l 4.1831,1.4691 c 0.6219,-2.3426 0.3933,-4.6538 -0.2605,-6.844 z m -1.992,-0.6996 -3.774,-1.3255 -2.1119,6.013 4.9516,1.739 c 0.7023,-2.3097 0.9693,-4.4659 0.9343,-6.4265 z m -11.427,-4.0134 -2.884,-1.0129 c -1.8799,1.3004 -3.5057,2.9621 -4.4853,5.1794 l 4.1831,1.4692 c 0.8606,-2.1793 1.9543,-4.0313 3.1862,-5.6357 z m 5.7653,2.027 -3.7776,-1.3268 c -1.2527,1.5077 -2.3885,3.3565 -3.2844,5.597 l 4.9508,1.7409 z m 10.1354,12.43 -4.1838,-1.4673 c -0.861,2.1802 -1.9537,4.0307 -3.1862,5.6356 l 2.8864,1.0117 c 1.8804,-1.3006 3.504,-2.9622 4.4836,-5.18 z m -11.0217,-3.871 -2.1143,6.0142 3.7758,1.3261 c 1.2533,-1.5081 2.393,-3.3577 3.2894,-5.5994 z m -1.8895,-0.6615 -4.9478,-1.7378 c -0.702,2.3091 -0.9724,4.4634 -0.9374,6.4234 l 3.774,1.3255 z m -6.8385,-2.4018 -4.1831,-1.4692 c -0.6219,2.3422 -0.393,4.6542 0.2605,6.8441 l 2.8857,1.0135 c 0.042,-2.0225 0.3456,-4.1496 1.0369,-6.3884 z m 13.0776,13.4654 -2.04,-0.7165 c -0.1992,0.2041 -0.3633,0.5081 -0.567,0.6952 -0.5524,0.5072 -1.1716,0.7276 -1.7615,1.1016 1.5273,-0.07 2.9849,-0.4929 4.3685,-1.0803 z m -4.0658,-1.4259 -3.059,-1.0744 -1,2.8471 c 1.2259,0.01 2.5948,-0.4597 4.059,-1.7727 z m -4.946,-1.7371 -3.059,-1.0744 c 0.3218,1.9402 1.0972,3.1613 2.059,3.9215 z m -5.0842,-1.7857 -2.04,-0.7165 c 0.7123,1.323 1.5888,2.564 2.7361,3.5735 -0.2261,-0.6602 -0.572,-1.2205 -0.6858,-1.9611 -0.044,-0.2733 0.018,-0.6121 -0.01,-0.8959 z" />
    </g>
  </g>
</svg>
