<?xml version="1.0" encoding="UTF-8" standalone="no"?>
<!-- Created with Inkscape (http://www.inkscape.org/) -->

<svg
   width="25.251953"
   height="31.912109"
   viewBox="0 0 25.251953 31.912109"
   version="1.1"
   id="svg1"
   xmlns="http://www.w3.org/2000/svg"
   xmlns:svg="http://www.w3.org/2000/svg">
  <defs
     id="defs1" />
  <g
     id="layer1"
     transform="translate(-136.74609,-207.32617)">
    <path
       id="path58"
       style="color:#000000;fill:#ffffff;stroke-linejoin:round;-inkscape-stroke:none;paint-order:stroke fill markers"
       d="m 137.74609,207.32617 a 1.0001,1.0001 0 0 0 -1,1 v 29.91211 a 1.0001,1.0001 0 0 0 1,1 h 23.25196 a 1.0001,1.0001 0 0 0 1,-1 V 215.9043 a 1,1 0 0 0 -0.0176,-0.1836 1.000105,1.000105 0 0 0 -0.0176,-0.0644 1,1 0 0 0 -0.0352,-0.11328 1.000105,1.000105 0 0 0 -0.0351,-0.0781 1,1 0 0 0 -0.0469,-0.084 1.000105,1.000105 0 0 0 -0.0488,-0.0723 1,1 0 0 0 -0.0645,-0.0781 1.000105,1.000105 0 0 0 -0.0273,-0.0332 l -7.57813,-7.57813 a 1.000105,1.000105 0 0 0 -0.0234,-0.0176 1,1 0 0 0 -0.19922,-0.14844 1.000105,1.000105 0 0 0 -0.0469,-0.0215 1,1 0 0 0 -0.2207,-0.0781 1.000105,1.000105 0 0 0 -0.0293,-0.008 1,1 0 0 0 -0.1875,-0.0195 z m 1,2 h 13.67383 v 6.57813 a 1.000105,1.000105 0 0 0 1,1 h 6.57813 v 20.33398 h -21.25196 z" />
    <path
       id="rect46"
       style="color:#000000;fill:#ffffff;stroke-linecap:round;stroke-linejoin:round;-inkscape-stroke:none;paint-order:stroke fill markers"
       d="m 154.36523,217.83984 c -0.0634,-0.004 -0.20606,0.0443 -0.49804,0.28711 -0.40326,0.33538 -1.01222,1.00303 -1.69141,2.14649 -0.0268,0.0451 -0.0517,0.0912 -0.0781,0.13672 h -8.49414 a 1.0001,1.0001 0 0 0 -1,1 v 11.53515 a 1.0001,1.0001 0 0 0 1,1 h 11.5371 a 1.0001,1.0001 0 0 0 1,-1 v -11.53515 a 1.0001,1.0001 0 0 0 -1,-1 h -2.00585 c 0.42605,-0.99141 0.80458,-1.64499 1.02929,-2.02735 0.24098,-0.41003 0.26508,-0.49641 0.24024,-0.52734 -0.006,-0.008 -0.0179,-0.0145 -0.0391,-0.0156 z m -9.76171,4.57032 h 6.5 c -0.077,0.17898 -0.15406,0.35882 -0.22657,0.53906 -0.53054,1.31878 -1.08106,2.88869 -1.53515,4.88281 -0.27013,-0.41997 -0.55235,-0.83506 -0.82227,-1.2207 -0.59601,-0.85155 -1.17067,-1.60696 -1.32812,-1.82227 -0.26937,-0.36834 -0.32498,-0.44176 -0.32618,-0.44336 l -1.59961,1.20118 c -0.001,-0.002 0.0497,0.0626 0.3086,0.41992 0.16936,0.23377 0.65777,0.94216 1.2207,1.80859 0.40762,0.62738 0.82351,1.29122 1.19531,1.92578 0.19538,0.33345 0.35931,0.6261 0.5,0.88867 0.17042,0.31806 0.2742,0.5289 0.36329,0.70704 l 1.97265,-0.23243 c 0.009,-0.0858 0.0183,-0.16944 0.0274,-0.25195 0.3446,-3.13529 0.7734,-5.70768 1.2539,-7.44531 0.0888,-0.32124 0.18456,-0.64074 0.28516,-0.95703 h 1.74804 v 9.53515 h -9.5371 z" />
  </g>
</svg>
