<?xml version="1.0" encoding="UTF-8" standalone="no"?>
<svg
   viewBox="0 0 56.000004 47.999996"
   height="47.999996"
   width="56.000004"
   xml:space="preserve"
   id="svg2"
   version="1.1"
   xmlns:xlink="http://www.w3.org/1999/xlink"
   xmlns="http://www.w3.org/2000/svg"
   xmlns:svg="http://www.w3.org/2000/svg"
   xmlns:rdf="http://www.w3.org/1999/02/22-rdf-syntax-ns#"
   xmlns:cc="http://creativecommons.org/ns#"
   xmlns:dc="http://purl.org/dc/elements/1.1/"><metadata
     id="metadata8"><rdf:RDF><cc:Work
         rdf:about=""><dc:format>image/svg+xml</dc:format><dc:type
           rdf:resource="http://purl.org/dc/dcmitype/StillImage" /></cc:Work></rdf:RDF></metadata><defs
     id="defs6"><linearGradient
       xlink:href="#linearGradient5"
       id="linearGradient6"
       x1="63.603092"
       y1="36.270805"
       x2="63.603092"
       y2="38.664585"
       gradientUnits="userSpaceOnUse" /><linearGradient
       id="linearGradient5"><stop
         style="stop-color:#eca516;stop-opacity:1;"
         offset="0"
         id="stop5" /><stop
         style="stop-color:#eca516;stop-opacity:0;"
         offset="1"
         id="stop6" /></linearGradient></defs><g
     id="g7"
     transform="matrix(2.1009746,0,0,2.1244813,-92.693191,-34.141077)"><g
       id="rect1"><path
         style="color:#000000;fill:#f4ba13;stroke-linecap:round;stroke-linejoin:round;stroke-miterlimit:5;-inkscape-stroke:none;paint-order:stroke fill markers"
         d="m 46.511719,16.070312 a 2.3940194,2.3940194 0 0 0 -2.392578,2.394532 v 17.80664 a 2.3940194,2.3940194 0 0 0 2.392578,2.392578 h 21.867187 a 2.3940194,2.3940194 0 0 0 2.394531,-2.392578 v -17.80664 a 2.3940194,2.3940194 0 0 0 -2.394531,-2.394532 z m 2.394531,4.789063 H 65.986328 V 33.876953 H 48.90625 Z"
         id="path6" /><path
         style="color:#000000;fill:#23a566;stroke-linecap:round;stroke-linejoin:round;stroke-miterlimit:5;-inkscape-stroke:none;paint-order:stroke fill markers"
         d="M 46.512085,18.464727 H 68.379688 V 36.270805 H 46.512085 Z"
         id="path7" /></g><g
       id="g4"
       transform="translate(1.9192106,2.5051546)"><g
         id="g3"
         transform="translate(26.525615,-2.4130742)"
         style="fill:#65c094;fill-opacity:1"><path
           id="path2"
           style="fill:#65c094;fill-opacity:1;stroke:none;stroke-width:3.5914;stroke-linecap:round;stroke-linejoin:round;stroke-miterlimit:5;stroke-opacity:1;paint-order:stroke fill markers"
           d="m 33.657167,25.446048 a 1.3169503,1.3169503 0 0 0 -1.317013,1.317014 1.3169503,1.3169503 0 0 0 1.317013,1.317012 1.3169503,1.3169503 0 0 0 1.317013,-1.317012 1.3169503,1.3169503 0 0 0 -1.317013,-1.317014 z m 0,3.521111 c -2.035963,0 -3.082362,1.168723 -3.082362,1.652594 v 0.994855 h 3.082362 3.082362 v -0.994855 c 0,-0.483871 -1.046398,-1.652594 -3.082362,-1.652594 z" /><path
           id="path3"
           style="fill:#65c094;fill-opacity:1;stroke:none;stroke-width:3.5914;stroke-linecap:round;stroke-linejoin:round;stroke-miterlimit:5;stroke-opacity:1;paint-order:stroke fill markers"
           d="m 24.14813,25.446048 a 1.3169503,1.3169503 0 0 0 -1.317013,1.317014 1.3169503,1.3169503 0 0 0 1.317013,1.317012 1.3169503,1.3169503 0 0 0 1.317013,-1.317012 1.3169503,1.3169503 0 0 0 -1.317013,-1.317014 z m 0,3.521111 c -2.035963,0 -3.082362,1.168723 -3.082362,1.652594 v 0.994855 h 3.082362 3.082362 v -0.994855 c 0,-0.483871 -1.046398,-1.652594 -3.082362,-1.652594 z" /></g><path
         id="path1"
         style="fill:#ffffff;fill-opacity:1;stroke:none;stroke-width:4.83912;stroke-linecap:round;stroke-linejoin:round;stroke-miterlimit:5;stroke-opacity:1;paint-order:stroke fill markers"
         d="m 55.428264,20.902197 a 1.7744845,1.7744845 0 0 0 -1.774569,1.774569 1.7744845,1.7744845 0 0 0 1.774569,1.774569 1.7744845,1.7744845 0 0 0 1.774569,-1.774569 1.7744845,1.7744845 0 0 0 -1.774569,-1.774569 z m 0,4.744414 c -2.743297,0 -4.153235,1.57476 -4.153235,2.226737 v 1.340487 h 4.153235 4.153235 v -1.340487 c 0,-0.651977 -1.409937,-2.226737 -4.153235,-2.226737 z" /></g><path
       id="rect4"
       style="fill:#ffffff;stroke-width:4.99679;stroke-linecap:round;stroke-linejoin:round;stroke-miterlimit:5;paint-order:stroke fill markers"
       d="m 59.949741,34.947887 h 5.291667 v 1.322917 h -5.291667 z" /><path
       id="rect5"
       style="fill:url(#linearGradient6);fill-opacity:1;stroke-width:4.99679;stroke-linecap:round;stroke-linejoin:round;stroke-miterlimit:5;paint-order:stroke fill markers"
       d="m 59.949741,36.270805 h 5.291667 l 2.296392,2.297144 h -5.291667 z" /></g></svg>
