<?xml version="1.0" encoding="UTF-8" standalone="no"?>
<!-- Created with Inkscape (http://www.inkscape.org/) -->

<svg
   width="25.251953"
   height="31.912109"
   viewBox="0 0 25.251953 31.912109"
   version="1.1"
   id="svg1"
   xmlns="http://www.w3.org/2000/svg"
   xmlns:svg="http://www.w3.org/2000/svg">
  <defs
     id="defs1" />
  <g
     id="layer1"
     transform="translate(-99.740234,-152.66406)">
    <path
       id="path76"
       style="color:#000000;fill:#0044aa;stroke-linejoin:round;-inkscape-stroke:none;paint-order:stroke fill markers"
       d="m 100.74023,152.66406 a 1.0001,1.0001 0 0 0 -0.999996,1 v 29.91211 a 1.0001,1.0001 0 0 0 0.999996,1 h 23.25196 a 1.0001,1.0001 0 0 0 1,-1 v -22.33398 a 1,1 0 0 0 -0.0176,-0.1836 1.000105,1.000105 0 0 0 -0.0176,-0.0645 1,1 0 0 0 -0.0352,-0.11328 1.000105,1.000105 0 0 0 -0.0352,-0.0781 1,1 0 0 0 -0.0469,-0.084 1.000105,1.000105 0 0 0 -0.0488,-0.0723 1,1 0 0 0 -0.0645,-0.0781 1.000105,1.000105 0 0 0 -0.0273,-0.0332 l -7.57813,-7.57813 a 1.000105,1.000105 0 0 0 -0.0234,-0.0176 1,1 0 0 0 -0.19922,-0.14843 1.000105,1.000105 0 0 0 -0.0469,-0.0215 1,1 0 0 0 -0.2207,-0.0781 1.000105,1.000105 0 0 0 -0.0293,-0.008 1,1 0 0 0 -0.1875,-0.0195 z m 1,2 h 13.67383 v 6.57813 a 1.000105,1.000105 0 0 0 1,1 h 6.57813 v 20.33398 h -21.25196 z" />
    <path
       id="path74"
       style="color:#000000;fill:#0044aa;stroke-linecap:round;stroke-linejoin:round;-inkscape-stroke:none;paint-order:stroke fill markers"
       d="m 109.71484,165.02344 a 1,1 0 0 0 -1,1 1,1 0 0 0 1,1 h 10.15235 a 1,1 0 0 0 1,-1 1,1 0 0 0 -1,-1 z" />
    <path
       id="path72"
       style="color:#000000;fill:#0044aa;stroke-linecap:round;stroke-linejoin:round;-inkscape-stroke:none;paint-order:stroke fill markers"
       d="m 109.71484,175.27734 a 1,1 0 0 0 -1,1 1,1 0 0 0 1,1 h 10.15235 a 1,1 0 0 0 1,-1 1,1 0 0 0 -1,-1 z" />
    <path
       id="path70"
       style="color:#000000;fill:#0044aa;stroke-linecap:round;stroke-linejoin:round;-inkscape-stroke:none;paint-order:stroke fill markers"
       d="m 109.71484,170.15039 a 1,1 0 0 0 -1,1 1,1 0 0 0 1,1 h 10.15235 a 1,1 0 0 0 1,-1 1,1 0 0 0 -1,-1 z" />
    <path
       id="path68"
       style="color:#000000;fill:#0044aa;stroke-linecap:round;stroke-linejoin:round;-inkscape-stroke:none;paint-order:stroke fill markers"
       d="m 105.61914,165.02344 a 1,1 0 0 0 -1,1 1,1 0 0 0 1,1 h 0.28125 a 1,1 0 0 0 1,-1 1,1 0 0 0 -1,-1 z" />
    <path
       id="path66"
       style="color:#000000;fill:#0044aa;stroke-linecap:round;stroke-linejoin:round;-inkscape-stroke:none;paint-order:stroke fill markers"
       d="m 105.61914,175.27734 a 1,1 0 0 0 -1,1 1,1 0 0 0 1,1 h 0.28125 a 1,1 0 0 0 1,-1 1,1 0 0 0 -1,-1 z" />
    <path
       id="path64"
       style="color:#000000;fill:#0044aa;stroke-linecap:round;stroke-linejoin:round;-inkscape-stroke:none;paint-order:stroke fill markers"
       d="m 105.61914,170.15039 a 1,1 0 0 0 -1,1 1,1 0 0 0 1,1 h 0.28125 a 1,1 0 0 0 1,-1 1,1 0 0 0 -1,-1 z" />
  </g>
</svg>
