<?xml version="1.0" encoding="UTF-8" standalone="no"?>
<!-- Created with Inkscape (http://www.inkscape.org/) -->

<svg
   width="136.25615mm"
   height="136.25616mm"
   viewBox="0 0 136.25615 136.25616"
   version="1.1"
   id="svg1"
   xml:space="preserve"
   sodipodi:docname="logo_blue_noflag.svg"
   inkscape:version="1.3.2 (091e20e, 2023-11-25, custom)"
   xmlns:inkscape="http://www.inkscape.org/namespaces/inkscape"
   xmlns:sodipodi="http://sodipodi.sourceforge.net/DTD/sodipodi-0.dtd"
   xmlns="http://www.w3.org/2000/svg"
   xmlns:svg="http://www.w3.org/2000/svg"><sodipodi:namedview
     id="namedview1"
     pagecolor="#ffffff"
     bordercolor="#000000"
     borderopacity="0.25"
     inkscape:showpageshadow="2"
     inkscape:pageopacity="0.0"
     inkscape:pagecheckerboard="0"
     inkscape:deskcolor="#d1d1d1"
     inkscape:document-units="mm"
     inkscape:zoom="1.4046462"
     inkscape:cx="166.58999"
     inkscape:cy="243.12171"
     inkscape:window-width="2560"
     inkscape:window-height="1334"
     inkscape:window-x="-11"
     inkscape:window-y="-11"
     inkscape:window-maximized="1"
     inkscape:current-layer="svg1" /><defs
     id="defs1"><filter
       style="color-interpolation-filters:sRGB"
       id="filter252"
       x="-0.01483698"
       y="-0.016813721"
       width="1.029674"
       height="1.0336274"><feFlood
         result="flood"
         in="SourceGraphic"
         flood-opacity="0.498039"
         flood-color="rgb(0,0,0)"
         id="feFlood251" /><feGaussianBlur
         result="blur"
         in="SourceGraphic"
         stdDeviation="1.000000"
         id="feGaussianBlur251" /><feOffset
         result="offset"
         in="blur"
         dx="-0.000000"
         dy="0.000000"
         id="feOffset251" /><feComposite
         result="comp1"
         operator="in"
         in="flood"
         in2="offset"
         id="feComposite251" /><feComposite
         result="comp2"
         operator="over"
         in="SourceGraphic"
         in2="comp1"
         id="feComposite252" /></filter></defs><path
     id="path829"
     style="display:inline;fill:#003380;fill-opacity:1;stroke:none;stroke-width:2.007;stroke-linecap:round;stroke-linejoin:round;paint-order:markers stroke fill"
     d="M 63.1751,9.93772 61.42534,23.21598 V 40.55084 H 55.81276 C 55.37072,32.68937 50.82422,27.63432 42.9784,27.63432 a 6.7535801,6.7535801 0 0 0 -6.75359,6.75359 6.7535801,6.7535801 0 0 0 6.75359,6.75359 6.7535801,6.7535801 0 0 0 6.75359,-6.75359 6.7535801,6.7535801 0 0 0 -1.02526,-3.56671 c 2.7167,2.0358 4.67018,5.43875 4.89428,9.72964 h -3.91139 v 3.99976 h 3.6251 C 52.73544,47.67889 51.30513,51.12427 48.70208,54.7722 38.00509,69.76298 28.0899,75.97405 28.0899,88.76392 c 0,12.78987 9.1362,18.60093 17.99322,18.60093 8.78299,0 17.11744,-7.98566 15.01304,-16.30908 a 4.3043189,4.3043189 0 0 0 -0.0119,-0.0501 c -0.0138,-0.0534 -0.0231,-0.10669 -0.0377,-0.16019 l -0.0202,0.005 a 4.3043189,4.3043189 0 0 0 -4.07003,-2.93108 4.3043189,4.3043189 0 0 0 -4.30413,4.30464 4.3043189,4.3043189 0 0 0 4.30413,4.30413 4.3043189,4.3043189 0 0 0 1.48776,-0.27698 c -1.51299,2.75226 -4.50671,3.34243 -6.80785,3.34243 -5.95476,0 -20.54063,-10.71352 -5.60379,-32.06316 5.8909,-8.42004 8.98848,-16.39771 9.67021,-22.97999 h 5.72265 v 66.21818 a 13.979816,13.979816 0 0 0 -7.18923,12.20494 13.979816,13.979816 0 0 0 0.10749,1.5074 60.060261,60.060261 0 0 0 14.1888,1.83813 60.060261,60.060261 0 0 0 13.54542,-1.69809 13.979816,13.979816 0 0 0 0.11783,-1.64744 13.979816,13.979816 0 0 0 -7.3639,-12.29073 V 44.55047 h 5.72265 c 0.68173,6.58228 3.77931,14.55995 9.67021,22.97999 14.93684,21.34964 0.35097,32.06316 -5.60379,32.06316 -2.30114,0 -5.29486,-0.59017 -6.80785,-3.34243 a 4.3043189,4.3043189 0 0 0 1.48776,0.27698 4.3043189,4.3043189 0 0 0 4.30413,-4.30413 4.3043189,4.3043189 0 0 0 -4.30413,-4.30464 4.3043189,4.3043189 0 0 0 -4.07003,2.93108 l -0.0202,-0.005 c -0.0146,0.0535 -0.0239,0.10675 -0.0377,0.16019 a 4.3043189,4.3043189 0 0 0 -0.0119,0.0501 c -2.1044,8.32342 6.23005,16.30908 15.01304,16.30908 8.85702,0 17.99322,-5.81106 17.99322,-18.60093 0,-12.78987 -9.91519,-19.00094 -20.61218,-33.99172 -2.60305,-3.64793 -4.03388,-7.09331 -4.61316,-10.2216 h 3.6251 V 40.55084 H 82.65551 C 82.8796,36.25995 84.83308,32.857 87.54978,30.8212 a 6.7535801,6.7535801 0 0 0 -1.02526,3.56671 6.7535801,6.7535801 0 0 0 6.75359,6.75359 6.7535801,6.7535801 0 0 0 6.7536,-6.75359 6.7535801,6.7535801 0 0 0 -6.75308,-6.75359 h -5.2e-4 c -7.84549,2.2e-4 -12.39233,5.05522 -12.83436,12.91652 H 74.83169 V 27.25036 h -0.005 c 0,0 -0.92604,-0.43059 -0.92604,-1.70687 0,-1.27628 1.43867,-1.00116 1.43867,-2.7404 0,-1.73925 -1.15812,-3.07018 -1.60662,-4.61936 -0.4485,-1.54919 -0.56275,-2.32234 -0.56275,-2.32234 -0.0192,1.7005 0.0145,3.401 -0.004,5.1015 0.14655,0.33768 0.40928,0.90023 0.40928,1.0883 0,0.25511 -0.19357,0.46274 -0.44132,0.49041 v -10e-4 c -0.0192,0.002 -0.0381,0.006 -0.0579,0.006 -0.007,0 -0.014,-0.002 -0.0212,-0.002 -0.0112,-10e-4 -0.0225,-0.002 -0.0336,-0.004 v 5.2e-4 c -0.24776,-0.0277 -0.44132,-0.23581 -0.44132,-0.49093 0,-0.18808 0.26273,-0.75062 0.40928,-1.0883 -0.0186,-1.70016 0.0149,-3.40032 -0.004,-5.10047 0,0 -0.11426,0.77315 -0.56275,2.32234 -0.44851,1.54918 -1.60662,2.88011 -1.60662,4.61936 0,1.73924 1.43867,1.46412 1.43867,2.7404 0,1.27628 -0.92604,1.70687 -0.92604,1.70687 h 0.003 V 40.55087 H 69.87829 V 35.60285 L 69.08505,20.46889 c 0.83126,-0.43537 1.14154,-1.44385 1.14154,-2.32905 -1e-5,-1.17275 -0.43772,-3.5212 -2.67219,-5.78621 0.99047,2.43317 -1.54078,3.9582 -1.57458,5.78621 -0.0134,0.72633 0.31718,1.83735 1.19217,2.31562 l -0.79375,15.14739 v 4.94802 H 64.9251 V 23.21601 Z m 1.75028,34.61288 h 1.45314 v 64.56556 a 13.979816,13.979816 0 0 0 -1.45314,0.28939 z m 4.95319,0 h 1.45314 v 64.82033 a 13.979816,13.979816 0 0 0 -1.45314,-0.26768 z" /><g
     id="g830"
     style="fill:#003380;fill-opacity:1;stroke-width:3.175"
     transform="translate(-300.9665,250.1489)"><path
       style="color:#000000;fill:#003380;fill-opacity:1;stroke-linecap:round;stroke-linejoin:round;-inkscape-stroke:none;paint-order:markers stroke fill"
       d="m -365.38086,-257.49805 c -37.6098,0 -68.13281,30.52302 -68.13281,68.13282 0,37.60979 30.52301,68.13281 68.13281,68.13281 37.6098,0 68.13281,-30.52302 68.13281,-68.13281 0,-37.6098 -30.52301,-68.13282 -68.13281,-68.13282 z m 0,3.17383 c 35.8939,0 64.95703,29.06508 64.95703,64.95899 0,35.8939 -29.06313,64.95703 -64.95703,64.95703 -35.8939,0 -64.95703,-29.06313 -64.95703,-64.95703 0,-35.89391 29.06313,-64.95899 64.95703,-64.95899 z"
       id="path830"
       transform="rotate(126.3533)" /></g></svg>
