<?xml version="1.0" encoding="UTF-8" standalone="no"?>
<!-- Created with Inkscape (http://www.inkscape.org/) -->

<svg
   width="20.75"
   height="31.999939"
   viewBox="0 0 20.75 31.999939"
   version="1.1"
   id="svg1"
   xml:space="preserve"
   xmlns="http://www.w3.org/2000/svg"
   xmlns:svg="http://www.w3.org/2000/svg"><defs
     id="defs1" /><g
     id="layer1"
     transform="translate(-535.44043,-149.28271)"><path
       id="path2"
       style="fill:#ffffff;stroke:#000080;stroke-width:2;stroke-linecap:round;stroke-linejoin:round;stroke-dasharray:none;paint-order:stroke fill markers"
       d="m 545.81543,150.28272 c -5.17766,0 -9.375,4.04301 -9.375,9.03076 0,9.14 9.375,20.96924 9.375,20.96924 0,0 9.375,-12.03685 9.375,-20.96924 0,-4.98775 -4.19733,-9.03076 -9.375,-9.03076 z m -0.11646,4.8728 a 3.75,3.75 0 0 1 3.75,3.75 3.75,3.75 0 0 1 -3.75,3.75 3.75,3.75 0 0 1 -3.75,-3.75 3.75,3.75 0 0 1 3.75,-3.75 z" /></g></svg>
