<?xml version="1.0" encoding="UTF-8" standalone="no"?>
<!-- Created with Inkscape (http://www.inkscape.org/) -->

<svg
   width="30"
   height="30"
   viewBox="0 0 30 30"
   version="1.1"
   id="svg1"
   sodipodi:docname="menu_btn_lines.svg"
   inkscape:version="1.3.2 (091e20e, 2023-11-25, custom)"
   xmlns:inkscape="http://www.inkscape.org/namespaces/inkscape"
   xmlns:sodipodi="http://sodipodi.sourceforge.net/DTD/sodipodi-0.dtd"
   xmlns="http://www.w3.org/2000/svg"
   xmlns:svg="http://www.w3.org/2000/svg">
  <sodipodi:namedview
     id="namedview1"
     pagecolor="#ffffff"
     bordercolor="#000000"
     borderopacity="0.25"
     inkscape:showpageshadow="2"
     inkscape:pageopacity="0.0"
     inkscape:pagecheckerboard="0"
     inkscape:deskcolor="#d1d1d1"
     inkscape:zoom="17.05"
     inkscape:cx="10.498534"
     inkscape:cy="11.495601"
     inkscape:window-width="2560"
     inkscape:window-height="1334"
     inkscape:window-x="-11"
     inkscape:window-y="-11"
     inkscape:window-maximized="1"
     inkscape:current-layer="svg1" />
  <defs
     id="defs1" />
  <path
     style="color:#000000;fill:#0069cc;stroke-width:0.999997;stroke-linecap:round;stroke-linejoin:round;stroke-miterlimit:5;-inkscape-stroke:none;paint-order:stroke fill markers;fill-opacity:1"
     d="M 3.000552,0 A 2.9998064,2.9992528 0 0 0 4.258174e-7,2.9999998 2.9998064,2.9992528 0 0 0 3.000552,5.9999999 H 26.999447 A 2.9998064,2.9992528 0 0 0 30,2.9999998 2.9998064,2.9992528 0 0 0 26.999447,0 Z"
     id="path12" />
  <path
     style="color:#000000;fill:#0069cc;stroke-width:0.999997;stroke-linecap:round;stroke-linejoin:round;stroke-miterlimit:5;-inkscape-stroke:none;paint-order:stroke fill markers;fill-opacity:1"
     d="M 3.0007395,24.000001 C 1.343308,23.999595 -4.0479542e-4,25.342978 5.589167e-7,27.000001 -4.0479542e-4,28.657023 1.3433108,30.000406 3.0007395,30 h 8.9985225 c 1.657429,4.06e-4 3.001143,-1.342977 3.000738,-2.999999 4.05e-4,-1.657023 -1.343309,-3.000406 -3.000738,-3 z"
     id="path14" />
  <path
     style="color:#000000;fill:#0069cc;stroke-width:0.999997;stroke-linecap:round;stroke-linejoin:round;stroke-miterlimit:5;-inkscape-stroke:none;paint-order:stroke fill markers;fill-opacity:1"
     d="M 2.9340553,12 C 1.3134583,11.999595 -3.9693e-4,13.342978 -5.835384e-7,15 -3.9693e-4,16.657023 1.3134583,18.000406 2.9340553,18 H 19.065945 c 1.620598,4.05e-4 2.934451,-1.342978 2.934055,-3 3.96e-4,-1.657022 -1.313457,-3.000405 -2.934055,-3 z"
     id="path10" />
</svg>
