<?xml version="1.0" encoding="UTF-8" standalone="no"?>
<!-- Created with Inkscape (http://www.inkscape.org/) -->

<svg
   width="32"
   height="32.000004"
   viewBox="0 0 32 32.000004"
   version="1.1"
   id="svg1"
   xml:space="preserve"
   xmlns="http://www.w3.org/2000/svg"
   xmlns:svg="http://www.w3.org/2000/svg"><defs
     id="defs1" /><g
     id="layer1"
     transform="translate(-10.107513,-37.017872)"><g
       id="g38"
       transform="matrix(2,0,0,2,-41.89249,-38.955981)"
       style="stroke-width:0.5"><rect
         style="font-variation-settings:'wght' 700;fill:#ffff00;fill-opacity:1;stroke:none;stroke-width:0.5;stroke-linecap:butt;stroke-linejoin:round;stroke-dasharray:none;paint-order:fill markers stroke"
         id="rect10"
         width="16"
         height="16"
         x="26"
         y="37.986927" /><g
         id="g24"
         transform="matrix(1.0086185,0,0,1.0086185,-0.29499989,37.902219)"
         style="stroke-width:0.495728"><path
           style="color:#000000;fill:#000000;stroke-width:0.495728;stroke-linejoin:round;-inkscape-stroke:none;paint-order:fill markers stroke"
           d="m 27.912109,7.8671875 c -0.965767,0 -1.759765,0.7939981 -1.759765,1.7597656 0,0.9657679 0.793998,1.7597659 1.759765,1.7597659 0.965768,0 1.757813,-0.793998 1.757813,-1.7597659 0,-0.9657675 -0.792045,-1.7597656 -1.757813,-1.7597656 z m 0,1 c 0.425328,0 0.757813,0.3344376 0.757813,0.7597656 0,0.4253279 -0.332485,0.7597659 -0.757813,0.7597659 -0.425328,0 -0.759765,-0.334438 -0.759765,-0.7597659 0,-0.425328 0.334437,-0.7597656 0.759765,-0.7597656 z"
           id="path13" /><path
           style="color:#000000;fill:#000000;stroke-width:0.495728;stroke-linejoin:round;-inkscape-stroke:none;paint-order:fill markers stroke"
           d="m 40.175781,0.08398437 c -0.965767,0 -1.759765,0.79399807 -1.759765,1.75976563 0,0.9657676 0.793998,1.7597656 1.759765,1.7597656 0.965768,0 1.757813,-0.793998 1.757813,-1.7597656 0,-0.96576756 -0.792045,-1.75976562 -1.757813,-1.75976563 z m 0,1.00000003 c 0.425328,0 0.757813,0.3344376 0.757813,0.7597656 0,0.425328 -0.332485,0.7597656 -0.757813,0.7597656 -0.425328,0 -0.759765,-0.3344376 -0.759765,-0.7597656 0,-0.425328 0.334437,-0.7597656 0.759765,-0.7597656 z"
           id="path15" /><path
           id="path18"
           style="color:#000000;fill:#000000;stroke-width:0.495728;stroke-linejoin:round;-inkscape-stroke:none;paint-order:fill markers stroke"
           d="M 36.699219,0.16601562 V 7.1308594 h 1 V 4.8359375 C 38.043255,4.8333069 38.54131,4.8588015 39.03125,5 c 0.431809,0.1244452 0.835261,0.3310526 1.123047,0.6523438 0.287785,0.3212912 0.488281,0.7624243 0.488281,1.4785156 h 1 c 0,-0.9173228 -0.292361,-1.6401534 -0.74414,-2.1445313 C 40.446659,4.4819502 39.86287,4.1988024 39.308594,4.0390625 38.702821,3.8644819 38.111848,3.82902 37.699219,3.8320312 V 0.16601562 Z" /><path
           style="color:#000000;fill:#000000;stroke-width:0.495728;stroke-linejoin:round;-inkscape-stroke:none;paint-order:fill markers stroke"
           d="m 27.425781,12.986328 v 2.960938 h 1 v -2.960938 z"
           id="path19" /><path
           style="color:#000000;fill:#000000;stroke-width:0.495728;stroke-linejoin:round;-inkscape-stroke:none;paint-order:fill markers stroke"
           d="m 32.664062,9.1777344 c -0.949078,0 -1.727813,0.4278874 -2.224609,1.0410156 -0.496795,0.613128 -0.736328,1.394263 -0.736328,2.164063 v 3.564453 h 1 v -3.564453 c 0,-0.557177 0.183816,-1.12806 0.513672,-1.535157 0.329855,-0.407096 0.782613,-0.669922 1.447265,-0.669922 0.664653,0 1.115457,0.262826 1.445313,0.669922 0.329856,0.407097 0.513672,0.97798 0.513672,1.535157 v 3.564453 h 1 v -3.564453 c 0,-0.7698 -0.239532,-1.550935 -0.736328,-2.164063 C 34.389923,9.6056219 33.613141,9.1777344 32.664062,9.1777344 Z"
           id="path20" /><path
           style="color:#000000;fill:#000000;stroke-width:0.495728;stroke-linejoin:round;-inkscape-stroke:none;paint-order:fill markers stroke"
           d="m 28.402344,0.36132813 c -0.507464,-1e-8 -1.020133,0.1650027 -1.435547,0.4921875 C 26.551383,1.1807004 26.240234,1.703149 26.240234,2.3222656 v 4.8085938 h 1 V 2.3222656 c 0,-0.3020442 0.126416,-0.5108802 0.345703,-0.6835937 0.219288,-0.1727136 0.537514,-0.2773438 0.816407,-0.2773438 0.397792,0 1.159378,0.3541966 1.849609,0.7050782 -0.787934,0.7732783 -1.439453,1.7721033 -1.439453,3.1328124 0,0.828208 0.349618,1.4743002 0.814453,1.8691407 0.464835,0.3948405 1.013296,0.5625 1.494141,0.5625 0.480845,0 1.029305,-0.1676595 1.49414,-0.5625 0.464835,-0.3948406 0.814453,-1.0409327 0.814453,-1.8691407 0,-1.360709 -0.651518,-2.3595341 -1.439453,-3.1328124 0.690231,-0.3508816 1.451819,-0.7050782 1.84961,-0.7050782 0.278893,0 0.597118,0.1046302 0.816406,0.2773438 0.219288,0.1727136 0.345703,0.3815497 0.345703,0.6835937 v 4.8085938 h 1 V 2.3222656 c 0,-0.6191168 -0.311148,-1.1415653 -0.726562,-1.46874997 -0.415415,-0.32718472 -0.928083,-0.49218751 -1.435547,-0.4921875 -0.760743,0 -1.768153,0.3430914 -2.71875,0.95117187 -0.950598,-0.6080805 -1.958006,-0.95117187 -2.71875,-0.95117187 z m 2.71875,2.19921877 c 0.734503,0.6297041 1.308594,1.4580851 1.308593,2.6386718 0,0.564767 -0.200344,0.8824571 -0.46289,1.1054688 -0.262546,0.2230117 -0.618827,0.3261719 -0.845703,0.3261719 -0.226876,0 -0.583158,-0.1031602 -0.845703,-0.3261719 C 30.012845,6.0816758 29.8125,5.7639857 29.8125,5.1992187 c 0,-1.1806996 0.573982,-2.0089524 1.308594,-2.6386718 z"
           id="path21" /><path
           id="path23"
           style="color:#000000;fill:#000000;stroke-width:0.495728;stroke-linejoin:round;-inkscape-stroke:none;paint-order:fill markers stroke"
           d="m 36.699219,7.7246094 c 0,2.4103106 1.154186,3.6539236 2.298828,4.1464846 0.635512,0.273472 1.261306,0.34592 1.693359,0.355468 v 0.152344 c 0,1.161078 -0.427213,1.686729 -1.144531,2.052735 -0.717318,0.366004 -1.777404,0.484375 -2.861328,0.484375 v 1 c 1.147234,0 2.338468,-0.09477 3.316406,-0.59375 0.977939,-0.498985 1.689453,-1.492011 1.689453,-2.94336 V 8.9355469 h -1 v 2.2890621 c -0.334924,-0.0095 -0.820616,-0.0657 -1.298828,-0.271484 -0.851755,-0.366526 -1.693359,-1.1122298 -1.693359,-3.2285156 z" /></g></g></g></svg>
