<?xml version="1.0" encoding="UTF-8" standalone="no"?>
<!-- Created with Inkscape (http://www.inkscape.org/) -->

<svg
   width="19.559174"
   height="32"
   viewBox="0 0 19.559174 32"
   version="1.1"
   id="svg1"
   xml:space="preserve"
   xmlns:xlink="http://www.w3.org/1999/xlink"
   xmlns="http://www.w3.org/2000/svg"
   xmlns:svg="http://www.w3.org/2000/svg"><defs
     id="defs1"><linearGradient
       id="linearGradient4"><stop
         style="stop-color:#00b4dc;stop-opacity:1"
         offset="0"
         id="stop4" /><stop
         style="stop-color:#fef001;stop-opacity:1"
         offset="0.46599776"
         id="stop6" /><stop
         style="stop-color:#fbbf0c;stop-opacity:1;"
         offset="1"
         id="stop5" /></linearGradient><linearGradient
       xlink:href="#linearGradient4"
       id="linearGradient37"
       gradientUnits="userSpaceOnUse"
       gradientTransform="translate(-4.45214,-19.049251)"
       x1="123.6852"
       y1="22.615042"
       x2="113.06973"
       y2="41.443645" /></defs><g
     id="layer1"
     transform="translate(-137.53851,-37.793114)"><g
       id="g36"
       transform="matrix(1.4456896,0,0,1.4456896,-17.107916,35.339396)"
       style="stroke-width:0.69171"><path
         style="color:#000000;fill:#ffffff;stroke-width:0.69171;-inkscape-stroke:none;paint-order:stroke fill markers"
         d="M 117,1.6972656 V 5.75 8.5039063 19.802734 c 0,0.345205 -0.18494,0.529297 -0.53125,0.529297 h -0.45312 c -0.34631,0 -0.52931,-0.182999 -0.5293,-0.529297 V 5.75 c 0,-2.2093045 -1.82228,-4.0292969 -4.03125,-4.0292969 h -0.45313 c -2.20896,0 -4.03125,1.8199941 -4.03125,4.0292969 v 14.052734 c 0,2.209303 1.82228,4.029297 4.03125,4.029297 h 0.45313 c 0.78175,0 1.51498,-0.233618 2.13281,-0.623047 l 0.19336,-0.123047 c 0.64625,0.442591 1.39917,0.746094 2.23438,0.746094 h 0.45312 c 2.20895,0 4.03125,-1.81999 4.03125,-4.029297 V 5.75 c 0,-1.8005386 -1.20561,-3.3417243 -2.85156,-3.8515625 z m -5.99805,1.0234375 h 0.45313 c 1.65907,0 3.03125,1.3705693 3.03125,3.0292969 v 14.052734 c -2e-5,0.838235 0.69106,1.529297 1.5293,1.529297 h 0.45312 c 0.83823,0 1.53125,-0.689968 1.53125,-1.529297 V 8.5039063 5.75 3.3105469 c 0.84624,0.5401789 1.5,1.372513 1.5,2.4394531 v 14.052734 c 0,1.658726 -1.3722,3.029297 -3.03125,3.029297 h -0.45312 c -0.74062,0 -1.42031,-0.271498 -1.95118,-0.722656 -0.65835,-0.559512 -1.07812,-1.388254 -1.07812,-2.306641 V 5.75 c -2e-5,-0.839324 -0.69302,-1.5292969 -1.53125,-1.5292969 h -0.45313 c -0.83822,0 -1.53125,0.6899631 -1.53125,1.5292969 v 14.052734 c 0,0.839334 0.69303,1.529297 1.53125,1.529297 h 0.45313 c 0.15002,0 0.26444,-0.08981 0.40234,-0.128906 0.16732,0.482233 0.43423,0.899267 0.74414,1.292969 -0.36535,0.159324 -0.72728,0.335937 -1.14648,0.335937 h -0.45313 c -1.65906,0 -3.03125,-1.370567 -3.03125,-3.029297 V 5.75 c 0,-1.6587293 1.37219,-3.0292969 3.03125,-3.0292969 z m 0,2.5 h 0.45313 c 0.34631,0 0.53124,0.1840881 0.53125,0.5292969 v 14.052734 c 0,0.08502 0.0494,0.15448 0.0547,0.238282 l -0.25977,0.189453 c -0.0869,0.06315 -0.18979,0.101562 -0.32617,0.101562 h -0.45313 c -0.34629,0 -0.53125,-0.184098 -0.53125,-0.529297 V 5.75 c 0,-0.345199 0.18496,-0.5292969 0.53125,-0.5292969 z"
         id="path35" /><path
         style="color:#000000;fill:url(#linearGradient37);stroke-width:0.69171;-inkscape-stroke:none;paint-order:stroke fill markers"
         d="m 111.00195,2.2202855 c -1.93402,0 -3.53125,1.595278 -3.53125,3.529296 V 19.802315 c 0,1.934018 1.59723,3.529297 3.53125,3.529297 h 0.45312 c 0.68299,0 1.32177,-0.202367 1.86524,-0.544922 -0.61845,-0.559706 -1.06382,-1.309773 -1.24414,-2.152344 -0.17028,0.123752 -0.38216,0.197266 -0.6211,0.197266 h -0.45312 c -0.59226,0 -1.03125,-0.43703 -1.03125,-1.029297 V 5.7495815 c 0,-0.592267 0.43899,-1.029296 1.03125,-1.029296 h 0.45312 c 0.59227,0 1.03125,0.437029 1.03126,1.029296 V 19.802315 c 0,1.070699 0.48924,2.037646 1.2539,2.6875 0.61656,0.523987 1.41207,0.841797 2.27539,0.841797 h 0.45313 c 1.934,0 3.53125,-1.595279 3.53125,-3.529297 V 5.7495815 c 0,-1.57631 -1.06037,-2.927116 -2.5,-3.373046 v 3.373046 2.753907 11.2988265 c 0,0.592267 -0.43898,1.029297 -1.03125,1.029297 h -0.45313 c -0.59227,0 -1.0293,-0.43703 -1.02929,-1.029297 V 5.7495815 c 0,-1.934018 -1.59724,-3.529296 -3.53126,-3.529296 z"
         id="path36" /></g></g></svg>
