<?xml version="1.0" encoding="UTF-8" standalone="no"?>
<!-- Created with Inkscape (http://www.inkscape.org/) -->

<svg
   width="25.251953"
   height="31.912109"
   viewBox="0 0 25.251953 31.912109"
   version="1.1"
   id="svg1"
   xmlns="http://www.w3.org/2000/svg"
   xmlns:svg="http://www.w3.org/2000/svg">
  <defs
     id="defs1" />
  <g
     id="layer1"
     transform="translate(-3.5058594,-152.66406)">
    <path
       id="path56"
       style="color:#000000;-inkscape-font-specification:Oswald;fill:#ff0000;-inkscape-stroke:none;paint-order:stroke fill markers"
       d="m 7.4433594,165.7168 v 10.73828 h 1.9277344 v -4.76563 h 0.8750002 c 0.587694,0 1.096238,-0.11047 1.513672,-0.34765 l 0.002,-0.002 h 0.002 c 0.410597,-0.24262 0.726586,-0.59123 0.93164,-1.02734 v -0.002 c 0.212958,-0.43591 0.316407,-0.9432 0.316407,-1.51172 0,-0.62174 -0.08781,-1.16386 -0.271485,-1.62305 -0.185893,-0.46474 -0.497096,-0.83177 -0.912109,-1.07812 -0.415877,-0.26013 -0.951264,-0.38086 -1.595703,-0.38086 z m 6.5410156,0 v 10.73828 h 0.25 2.337891 c 0.745636,0 1.359081,-0.12912 1.833984,-0.41406 h 0.002 v -0.002 c 0.475009,-0.28873 0.822696,-0.7188 1.025391,-1.25976 v -0.002 c 0.208309,-0.53512 0.308594,-1.17567 0.308594,-1.92187 v -3.76563 c 0,-0.71358 -0.100135,-1.32223 -0.310547,-1.82617 -0.205324,-0.51152 -0.568743,-0.91009 -1.060547,-1.16211 -0.491172,-0.26447 -1.127827,-0.38476 -1.91211,-0.38476 z m 7.134766,0 v 10.73828 h 0.25 1.677734 v -4.79102 h 1.958984 v -1.50976 h -1.958984 v -2.91211 h 2.527344 v -1.52539 z m -11.7480472,1.52539 h 0.4199218 c 0.4627494,0 0.7911414,0.0543 0.9589844,0.1289 0.162874,0.0724 0.250379,0.17408 0.302734,0.37696 l 0.002,0.004 v 0.004 c 0.0642,0.22112 0.103515,0.5789 0.103515,1.05469 0,0.40045 -0.05126,0.70022 -0.130859,0.88672 -0.07686,0.17139 -0.185725,0.27636 -0.367188,0.34765 -0.18974,0.0745 -0.488636,0.1211 -0.8828122,0.1211 h -0.40625 z m 6.5410152,0.0371 h 0.521485 c 0.462855,0 0.776784,0.0797 0.935547,0.18554 0.167652,0.11177 0.278131,0.2807 0.335937,0.5625 0.06208,0.30267 0.0957,0.71802 0.0957,1.23828 v 3.32422 c 0,0.54002 -0.02561,0.99847 -0.07422,1.3711 v 0.002 0.004 c -0.03761,0.34597 -0.146042,0.57486 -0.3125,0.72851 -0.146303,0.13505 -0.453192,0.23633 -0.943359,0.23633 h -0.558594 z" />
    <path
       id="path80"
       style="color:#000000;fill:#ff0000;stroke-linejoin:round;-inkscape-stroke:none;paint-order:stroke fill markers"
       d="m 4.5058594,152.66406 a 1.0001,1.0001 0 0 0 -1,1 v 29.91211 a 1.0001,1.0001 0 0 0 1,1 H 27.757812 a 1.0001,1.0001 0 0 0 1,-1 v -22.33398 a 1,1 0 0 0 -0.01758,-0.1836 1.000105,1.000105 0 0 0 -0.01758,-0.0645 1,1 0 0 0 -0.03516,-0.11328 1.000105,1.000105 0 0 0 -0.03516,-0.0781 1,1 0 0 0 -0.04687,-0.084 1.000105,1.000105 0 0 0 -0.04883,-0.0723 1,1 0 0 0 -0.06445,-0.0781 1.000105,1.000105 0 0 0 -0.02734,-0.0332 l -7.578125,-7.57813 a 1.000105,1.000105 0 0 0 -0.02344,-0.0176 1,1 0 0 0 -0.199219,-0.14843 1.000105,1.000105 0 0 0 -0.04687,-0.0215 1,1 0 0 0 -0.220704,-0.0781 1.000105,1.000105 0 0 0 -0.0293,-0.008 1,1 0 0 0 -0.1875,-0.0195 z m 1,2 H 19.179688 v 6.57813 a 1.000105,1.000105 0 0 0 1,1 h 6.578124 v 20.33398 H 5.5058594 Z" />
  </g>
</svg>
