<?xml version="1.0" encoding="UTF-8" standalone="no"?>
<!-- Created with Inkscape (http://www.inkscape.org/) -->

<svg
   width="33.004944"
   height="33.005203"
   viewBox="0 0 33.004944 33.005203"
   version="1.1"
   id="svg1"
   xml:space="preserve"
   xmlns="http://www.w3.org/2000/svg"
   xmlns:svg="http://www.w3.org/2000/svg"><defs
     id="defs1" /><g
     id="layer1"
     transform="translate(-569.85937,-150.56007)"><g
       id="g44"><path
         id="rect9"
         style="fill:#ffffff;fill-opacity:1;stroke:#000080;stroke-width:2;stroke-linecap:round;stroke-linejoin:round;paint-order:stroke fill markers"
         d="m 579.07459,152.06078 c -0.49443,-0.54094 -1.25261,-0.71297 -2.45059,-0.16453 -1.74252,0.79775 -4.09724,1.57184 -5.37606,5.33232 -0.70596,2.076 -0.31276,4.27151 0.18021,5.82489 h -10e-4 c 0,0 0.10544,0.45459 0.49342,1.31958 0.0409,0.0942 0.0695,0.15345 0.10571,0.23197 0.0159,0.0339 0.0312,0.0669 0.0479,0.10178 0.12394,0.26167 0.21999,0.44554 0.21999,0.44554 1.1235,2.19938 3.36619,5.98829 6.76701,9.2112 3.22292,3.40084 7.01183,5.64352 9.21122,6.76702 0,0 0.18387,0.0961 0.44553,0.22 0.0349,0.0167 0.0679,0.032 0.10178,0.0478 0.0785,0.0363 0.13777,0.0648 0.23197,0.10573 0.86499,0.38796 1.31958,0.49341 1.31958,0.49341 v -0.001 c 1.55338,0.49296 3.74888,0.88616 5.82489,0.18019 3.7605,-1.2788 4.53459,-3.63352 5.3323,-5.37606 0.79776,-1.74251 0.0714,-2.55441 -1.09795,-2.97829 l -5.53529,-2.0063 c -1.16939,-0.42387 -2.57623,0.21769 -3.12372,1.44843 l -0.47425,1.06656 c -0.004,0.0103 -0.48938,1.19009 -2.64748,0.52849 -1.76861,-0.54219 -3.12039,-1.13444 -6.03528,-4.04933 -2.9149,-2.91489 -3.50715,-4.26667 -4.04934,-6.03528 -0.66158,-2.1581 0.51841,-2.64337 0.52851,-2.64749 l 1.06656,-0.47423 c 1.23074,-0.5475 1.87229,-1.95433 1.44841,-3.12372 l -2.0063,-5.5353 c -0.13246,-0.36543 -0.30294,-0.68754 -0.52768,-0.93342 z" /><g
         id="g13"
         transform="translate(0.99980706)"><path
           id="path11"
           style="fill:none;stroke:#000080;stroke-width:2;stroke-linecap:round;stroke-linejoin:round;stroke-opacity:1;paint-order:fill markers stroke"
           d="m 584.05663,151.5604 c 9.28275,0 16.80791,7.52516 16.80791,16.80791" /><path
           id="path12"
           style="fill:none;stroke:#000080;stroke-width:2;stroke-linecap:round;stroke-linejoin:round;stroke-opacity:1;paint-order:fill markers stroke"
           d="m 584.05663,156.31419 c 6.6573,0 12.05412,5.39682 12.05412,12.05412" /><path
           id="path13"
           style="fill:none;stroke:#000080;stroke-width:2;stroke-linecap:round;stroke-linejoin:round;stroke-opacity:1;paint-order:fill markers stroke"
           d="m 584.05663,160.88537 c 4.13271,0 7.48294,3.35023 7.48294,7.48294" /></g></g></g></svg>
