<?xml version="1.0" encoding="UTF-8" standalone="no"?>
<!-- Created with Inkscape (http://www.inkscape.org/) -->

<svg
   width="22.704151"
   height="24.021393"
   viewBox="0 0 22.704151 24.021393"
   version="1.1"
   id="svg1"
   xmlns="http://www.w3.org/2000/svg"
   xmlns:svg="http://www.w3.org/2000/svg">
  <defs
     id="defs1" />
  <g
     id="layer1"
     transform="translate(-53.135647,-43.230629)">
    <g
       id="g17"
       transform="matrix(0.04115058,-0.01445281,0.01445281,0.04115058,-42.877246,49.990198)">
      <g
         id="g26"
         transform="matrix(1.2799957,0,0,1.2799957,-83.249272,-321.6901)">
        <path
           style="color:#000000;fill:#ffffff;stroke-width:1;stroke-linecap:round;stroke-linejoin:round;-inkscape-stroke:none"
           d="m 1744.2842,710.08165 c -11.3768,0 -19.0672,6.83171 -22.241,13.05365 -3.1737,6.22195 -3.2017,12.24362 -3.2017,12.24362 a 7.2705067,7.2705067 0 0 0 0,0.14695 v 93.42236 c -1.7083,-1.54247 -4.3622,-3.63046 -7.9649,-5.25143 -6.2278,-2.80209 -16.1482,-3.67512 -25.1397,2.68287 -9.1471,6.46815 -11.0853,16.70381 -9.8916,23.60477 1.1938,6.90097 4.6502,11.86522 4.6502,11.86522 a 7.2705067,7.2705067 0 0 0 0.2548,0.35497 l 47.4524,62.10489 a 7.2705067,7.2705067 0 0 0 11.9674,-0.6028 c 0,0 1.1711,-2.3014 7.0824,-5.994 5.9112,-3.6926 16.1335,-8.0326 33.0917,-9.3314 32.3194,-2.4755 65.6168,20.4845 65.6168,20.4845 a 7.2705067,7.2705067 0 0 0 11.418,-4.885 l 4.2064,-29.2879 a 7.2705067,7.2705067 0 0 0 0.043,-0.3684 c 0,0 4.5614,-49.65821 5.4523,-59.23034 1.0326,-11.09258 -4.4433,-21.0803 -12.3373,-27.0629 -3.947,-2.9913 -8.6659,-5.05649 -13.8417,-5.31248 -1.0582,-0.0523 -2.1333,0.006 -3.2103,0.1278 -0.6685,-5.61695 -2.1961,-10.33359 -4.5457,-14.23855 -3.7673,-6.26097 -9.7865,-9.94746 -15.6365,-11.08287 -5.4714,-1.06195 -10.7071,-0.21804 -15.2253,1.53134 -0.9891,-3.03004 -2.3439,-5.72451 -4.1049,-8.02231 -3.9837,-5.19779 -9.8706,-7.978 -15.5008,-8.48307 -4.5149,-0.405 -8.9385,0.34273 -12.9485,1.98357 v -29.00884 a 7.2705067,7.2705067 0 0 0 0,-0.14695 c 0,0 -0.028,-6.02167 -3.2019,-12.24362 -3.1738,-6.22194 -10.8641,-13.05365 -22.241,-13.05365 z"
           id="path18"
           transform="matrix(2.0439321,0,0,2.0439321,-1797.6617,-726.36183)" />
        <path
           id="path17"
           style="color:#000000;fill:#000000;stroke-width:2.04393;stroke-linecap:round;stroke-linejoin:round;-inkscape-stroke:none"
           d="m 1767.6247,724.24396 c -23.2534,0 -38.9721,13.96356 -45.4591,26.68078 -6.4868,12.71724 -6.5441,25.02513 -6.5441,25.02513 a 14.860422,14.860422 45 0 0 0,0.30035 v 190.94897 c -3.4916,-3.15271 -8.916,-7.42042 -16.2797,-10.73357 -12.7292,-5.72728 -33.0058,-7.5117 -51.3838,5.4836 -18.6961,13.22046 -22.6576,34.14146 -20.2178,48.24658 2.4401,14.1051 9.5047,24.2517 9.5047,24.2517 a 14.860422,14.860422 45 0 0 0.5208,0.7255 l 96.9895,126.938 a 14.860422,14.860422 45 0 0 24.4606,-1.232 c 0,0 2.3936,-4.7038 14.4759,-12.2513 12.0821,-7.5475 32.9758,-16.4181 67.6372,-19.0729 66.0586,-5.0596 134.1163,41.8691 134.1163,41.8691 a 14.860422,14.860422 45 0 0 23.3376,-9.9848 l 8.5976,-59.8623 a 14.860422,14.860422 45 0 0 0.088,-0.7531 c 0,0 9.3232,-101.49783 11.1441,-121.06261 2.1106,-22.67248 -9.0818,-43.0867 -25.2166,-55.31473 -8.0674,-6.11401 -17.7125,-10.33512 -28.2915,-10.85835 -2.1629,-0.1069 -4.3603,0.0123 -6.5616,0.26122 -1.3664,-11.48067 -4.4887,-21.12116 -9.2911,-29.10263 -7.7001,-12.797 -20.003,-20.33194 -31.96,-22.65264 -11.1831,-2.17055 -21.8846,-0.44566 -31.1195,3.12996 -2.0216,-6.1932 -4.7907,-11.70051 -8.3901,-16.39706 -8.1424,-10.62393 -20.1748,-16.30649 -31.6826,-17.33882 -9.2281,-0.82779 -18.2697,0.70052 -26.4658,4.05428 v -59.2921 a 14.860422,14.860422 45 0 0 0,-0.30035 c 0,0 -0.057,-12.30789 -6.5445,-25.02513 -6.487,-12.71722 -22.2055,-26.68078 -45.4591,-26.68078 z m 0,29.71788 c 13.1435,0 15.9985,4.61013 18.9859,10.46654 2.9788,5.83993 3.3007,12.06536 3.3026,12.10047 v 91.89758 54.93162 a 14.858937,14.858937 45 0 0 14.8589,14.85895 14.858937,14.858937 45 0 0 14.859,-14.85895 v -50.84976 c 4.5533,-6.06883 15.7773,-12.14198 23.8106,-11.42137 4.5026,0.40394 7.6827,1.81556 10.7509,5.81878 3.0681,4.00325 6.1438,11.61604 6.1438,25.13833 v 51.83503 a 14.858937,14.858937 45 0 0 14.8588,14.85894 14.858937,14.858937 45 0 0 14.859,-14.85894 v -46.8274 c 1.173,-1.0469 3.1043,-2.65055 5.7884,-3.79166 4.7744,-2.02981 10.916,-2.93725 15.7847,-1.9923 4.8684,0.94493 8.6006,2.8864 12.1583,8.79927 3.5579,5.91287 6.6536,16.80247 5.6231,34.92573 a 14.860422,14.860422 45 0 0 0.039,0.20897 14.858937,14.858937 45 0 0 -0.063,0.63413 v 44.82783 a 14.858937,14.858937 45 0 0 14.859,14.85894 14.858937,14.858937 45 0 0 14.859,-14.85894 V 943.8036 c 1.4512,-0.48457 2.901,-0.61463 4.5316,-0.534 3.3821,0.1672 7.6729,1.72555 11.8102,4.86109 8.2749,6.27111 14.5665,18.23768 13.5763,28.87624 -1.8269,19.62727 -11.0538,120.08057 -11.1123,120.71577 l -5.3124,36.9892 c -26.9594,-15.3927 -78.012,-39.0408 -133.5388,-34.7879 -38.8276,2.9739 -64.7506,13.2782 -81.1119,23.4986 -3.7753,2.3584 -7.036,4.7873 -9.8991,7.1378 l -86.2211,-112.8452 c -0.1328,-0.2114 -3.632,-5.8149 -4.803,-12.5851 -1.1934,-6.89869 -1.6732,-12.01173 8.0911,-18.91613 10.0827,-7.12958 15.8415,-5.43249 22.033,-2.64675 6.0447,2.71966 9.9382,6.91591 10.1254,7.11895 l 21.4006,28.00563 a 14.860422,14.860422 45 0 0 26.6647,-9.0213 V 776.52885 c 0,-0.0352 0.3238,-6.26054 3.3026,-12.10047 2.9874,-5.85641 5.8424,-10.46654 18.9859,-10.46654 z" />
      </g>
    </g>
  </g>
</svg>
