<?xml version="1.0" encoding="UTF-8" standalone="no"?>
<!-- Created with Inkscape (http://www.inkscape.org/) -->

<svg
   width="29.564041"
   height="29.564411"
   viewBox="0 0 29.564041 29.564411"
   version="1.1"
   id="svg1"
   xmlns="http://www.w3.org/2000/svg"
   xmlns:svg="http://www.w3.org/2000/svg">
  <defs
     id="defs1" />
  <g
     id="layer1"
     transform="translate(-175.08461,-1.1928304)">
    <path
       id="path54"
       style="color:#000000;fill:#2a7fff;stroke-linecap:round;stroke-linejoin:round;-inkscape-stroke:none;paint-order:stroke fill markers"
       d="m 189.86587,1.1928305 c -4.63881,2.45e-5 -8.73327,2.1885797 -11.44531,5.5409961 a 1,1 0 0 0 -0.40037,0.4863045 c -1.82107,2.4572828 -2.93552,5.4668239 -2.93558,8.7539259 2e-5,3.35295 1.16327,6.411956 3.05087,8.89452 a 1,1 0 0 0 0.19138,0.232454 c 2.70988,3.417683 6.84786,5.656283 11.53904,5.656212 4.6907,7.9e-5 8.82719,-2.237205 11.53713,-5.654268 a 1,1 0 0 0 0.19721,-0.238314 c 1.88586,-2.4818 3.04887,-5.53968 3.04841,-8.890771 -1.2e-4,-3.351181 -1.16479,-6.4085643 -3.05077,-8.8905656 a 1,1 0 0 0 -0.19341,-0.2363443 c -1.5325,-1.9328348 -3.48757,-3.5192266 -5.78904,-4.4941563 l -2e-4,5.661e-4 c -1.76794,-0.7488586 -3.70998,-1.1601367 -5.74804,-1.1600955 z m -0.99999,2.3906023 0.002,3.0195389 -3.24406,-0.0019 c 0.94643,-1.724513 2.08292,-2.6183091 3.24214,-3.0176353 z m 2.00201,1.41e-5 c 1.16033,0.3969285 2.29569,1.2925603 3.24215,3.0175543 l -3.24416,0.00199 z m -5.78719,0.5507951 2.3e-4,-6.604e-4 c -0.43274,0.5485971 -0.94361,0.9632373 -1.29688,1.6250656 -0.13211,0.2433724 -0.18578,0.5832921 -0.30628,0.8418732 l -2.16796,0.00201 c 1.11173,-1.013995 2.35028,-1.8960049 3.76947,-2.4687853 z m 9.5723,0.00192 c 0.0619,0.022814 0.13121,0.034423 0.19348,0.056294 l 6.6e-4,2.32e-4 c 1.34646,0.5682897 2.51303,1.4405429 3.57607,2.4101939 l -2.16789,1.84e-5 c -0.12061,-0.2595315 -0.17603,-0.6008815 -0.30668,-0.8457092 -0.353,-0.6613388 -0.86252,-1.0749522 -1.29491,-1.6231047 z m -11.8984,4.4648502 c -0.63064,1.9223338 -1.04712,4.0312798 -1.1368,6.3730758 l -4.43357,-7.4e-5 c 0.18951,-2.416324 1.17107,-4.521188 2.5137,-6.3709881 z m 2.11128,2.4e-5 4.00001,-4.6e-6 2e-5,6.3730904 -5.24809,-8.4e-5 c 0.10275,-2.411924 0.56535,-4.534775 1.24806,-6.3730018 z m 12.11131,-3.45e-5 3.0567,1.09e-5 c 1.34276,1.8498754 2.32606,3.9564364 2.51556,6.3730714 l -4.43361,2.1e-5 c -0.0898,-2.341349 -0.50801,-4.451134 -1.13865,-6.3731033 z m -6.11126,0.00201 4.00383,-3.81e-5 c 0.68231,1.8376254 1.1413,3.9583424 1.24414,6.3691304 l -5.24797,0.002 z m -13.68172,8.3690953 4.43364,0.002 c 0.0899,2.342331 0.50765,4.450369 1.13869,6.373009 l -3.05857,-0.0019 c -1.34317,-1.850231 -2.32442,-3.955968 -2.51376,-6.373075 z m 11.68172,1.4e-5 0.002,6.375019 -4.0019,-2.6e-5 c -0.68274,-1.838203 -1.14514,-3.960966 -1.24805,-6.373052 z m 2.00195,0.002 5.24411,-4.3e-5 c -0.10284,2.411259 -0.5616,4.533443 -1.24411,6.371105 l -4.00001,4e-6 z m 7.24801,1e-6 4.43361,-2.1e-5 c -0.18938,2.415947 -1.17148,4.521466 -2.51374,6.371083 l -3.0585,-8e-6 c 0.63058,-1.922145 1.04899,-4.029669 1.13863,-6.371054 z m -16.80079,8.371027 2.16217,-1.5e-5 c 0.12031,0.258578 0.1744,0.59978 0.30459,0.84381 0.35312,0.661594 0.8643,1.074728 1.29694,1.623074 -1.41781,-0.572152 -2.65292,-1.454168 -3.7637,-2.466869 z m 4.30859,0.002 3.24219,-2.4e-5 5e-5,3.017612 c -1.15995,-0.396796 -2.29586,-1.293575 -3.24224,-3.017588 z m 5.24218,2.1e-5 3.24219,-2.4e-5 c -0.94655,1.723942 -2.08278,2.619102 -3.24215,3.017636 z m 5.38867,-3.7e-5 2.16217,-1.5e-5 c -1.11046,1.012212 -2.34867,1.892646 -3.76567,2.464924 0.4321,-0.547975 0.94412,-0.961995 1.29691,-1.623041 0.13207,-0.243278 0.18585,-0.583481 0.30631,-0.841967 z" />
  </g>
</svg>
