<?xml version="1.0" encoding="UTF-8" standalone="no"?>
<!-- Created with Inkscape (http://www.inkscape.org/) -->

<svg
   width="42"
   height="42"
   viewBox="0 0 42 42"
   version="1.1"
   id="svg1"
   xml:space="preserve"
   xmlns="http://www.w3.org/2000/svg"
   xmlns:svg="http://www.w3.org/2000/svg"
   xmlns:rdf="http://www.w3.org/1999/02/22-rdf-syntax-ns#"
   xmlns:cc="http://creativecommons.org/ns#"
   xmlns:dc="http://purl.org/dc/elements/1.1/"><title
     id="title1">Макет сторінки &quot;Студентське самоврядування&quot; для ЛФВКМ</title><defs
     id="defs1" /><g
     id="layer1"
     transform="translate(317.22991,-1638.6097)"><g
       id="g12"
       transform="translate(-1561.1906,1519.2979)"><rect
         style="fill:#1c99d8;fill-opacity:1;stroke:none;stroke-width:1.02411;stroke-linecap:butt;stroke-dasharray:none"
         id="rect12"
         width="42"
         height="42"
         x="1243.9607"
         y="119.3118"
         ry="12" /><path
         id="path11"
         style="fill:#ffffff;stroke:none;stroke-width:1.89516;stroke-linecap:butt;stroke-dasharray:none"
         d="m 1273.2323,129.73606 -22.2974,9.57157 a 1.2898353,1.2898353 84.24202 0 0 0.2469,2.44821 l 4.6555,0.9655 a 5.3755484,5.3755484 168.33192 0 0 4.1789,-0.86299 l 7.7123,-5.41074 a 0.21094532,0.21094532 49.104776 0 1 0.2747,0.31725 l -5.7381,6.09724 a 2.0672982,2.0672982 86.157685 0 0 0.203,3.02218 l 7.3636,5.97432 a 1.7061758,1.7061758 158.84594 0 0 2.7618,-1.06868 l 2.9296,-19.28314 a 1.6562521,1.6562521 37.703133 0 0 -2.2908,-1.77072 z"
         transform="matrix(1.0553211,0,0,1.0553211,-69.159922,-7.1697153)" /></g></g><metadata
     id="metadata1"><rdf:RDF><cc:Work
         rdf:about=""><dc:title>Макет сторінки &quot;Студентське самоврядування&quot; для ЛФВКМ</dc:title><dc:creator><cc:Agent><dc:title>Савін Сергій Володимирович</dc:title></cc:Agent></dc:creator><dc:language>Українська</dc:language></cc:Work></rdf:RDF></metadata></svg>
