<?xml version="1.0" encoding="UTF-8" standalone="no"?>
<!-- Created with Inkscape (http://www.inkscape.org/) -->

<svg
   width="66.458107mm"
   height="55.098568mm"
   viewBox="0 0 66.458107 55.098568"
   version="1.1"
   id="svg1"
   xml:space="preserve"
   xmlns="http://www.w3.org/2000/svg"
   xmlns:svg="http://www.w3.org/2000/svg"><defs
     id="defs1" /><g
     id="layer1"
     transform="translate(82.818865,-78.842413)"><path
       style="fill:#2ba5df;stroke:none"
       d="m -20.690333,79.26695 c -4.924833,1.811004 -38.60971,14.421712 -57.93749,21.57065 -1.627165,0.53513 -4.19104,1.29123 -4.19104,3.15867 0,1.86744 2.078425,2.15488 3.568056,2.63082 2.645267,0.84517 13.171781,4.16012 13.171781,4.16012 0,0 3.756034,11.32725 5.736129,17.25623 0.383653,1.14877 0.849102,2.54056 2.439667,2.69254 1.353598,0.12934 2.181293,-0.87555 3.031855,-1.65052 2.776239,-2.52952 7.600401,-6.9395 7.600401,-6.9395 0,0 8.173944,5.96947 12.252014,8.96606 1.668206,1.22755 3.513232,3.22594 5.772983,2.75981 1.633776,-0.33701 2.117471,-1.67401 2.417621,-3.12879 0.946206,-4.58611 9.296838,-43.832921 10.455582,-49.963301 0.124749,-0.659993 -0.681137,-2.850007 -4.317559,-1.512789 z m -37.046768,45.24625 -4.605177,-15.18715 c 0,0 20.682363,-13.211469 33.137834,-21.112134 0.235003,-0.149065 0.689784,-0.236187 0.834824,0.139633 0.14504,0.375819 -0.198881,0.845411 -0.419502,1.118293 -1.842452,2.278902 -18.682387,16.914318 -27.992192,25.406038 z"
       id="path1" /></g></svg>
